<mxfile host="app.diagrams.net" modified="2024-06-24T22:39:10.381Z" agent="Mozilla/5.0 (Windows NT 10.0; Win64; x64) AppleWebKit/537.36 (KHTML, like Gecko) Chrome/126.0.0.0 Safari/537.36" etag="nzbfpwm2NnkUXQSMu7qG" version="24.6.2" type="github">
  <diagram name="Pagina-1" id="2PzucVVuemy0MzqI2Rzy">
    <mxGraphModel dx="1276" dy="543" grid="1" gridSize="10" guides="1" tooltips="1" connect="1" arrows="1" fold="1" page="1" pageScale="1" pageWidth="827" pageHeight="1169" math="0" shadow="0">
      <root>
        <mxCell id="0" />
        <mxCell id="1" parent="0" />
        <mxCell id="PmFzKxTWgb2I8v0q9J5C-1" value="Utente non autenticato" style="shape=umlActor;verticalLabelPosition=bottom;verticalAlign=top;html=1;outlineConnect=0;" parent="1" vertex="1">
          <mxGeometry x="141.18" y="565" width="30" height="60" as="geometry" />
        </mxCell>
        <mxCell id="PmFzKxTWgb2I8v0q9J5C-4" value="" style="rounded=0;whiteSpace=wrap;html=1;rotation=90;" parent="1" vertex="1">
          <mxGeometry x="58.68000000000001" y="747.5" width="195" height="10" as="geometry" />
        </mxCell>
        <mxCell id="PmFzKxTWgb2I8v0q9J5C-5" value="" style="rounded=0;whiteSpace=wrap;html=1;rotation=90;" parent="1" vertex="1">
          <mxGeometry x="371.17999999999995" y="685" width="67.5" height="10" as="geometry" />
        </mxCell>
        <mxCell id="PmFzKxTWgb2I8v0q9J5C-6" value="" style="endArrow=classic;html=1;rounded=0;" parent="1" edge="1">
          <mxGeometry width="50" height="50" relative="1" as="geometry">
            <mxPoint x="171.18" y="685" as="sourcePoint" />
            <mxPoint x="391.17999999999995" y="685" as="targetPoint" />
          </mxGeometry>
        </mxCell>
        <mxCell id="PmFzKxTWgb2I8v0q9J5C-8" value="loginView()" style="text;html=1;align=center;verticalAlign=middle;resizable=0;points=[];autosize=1;strokeColor=none;fillColor=none;" parent="1" vertex="1">
          <mxGeometry x="238.68" y="655" width="80" height="30" as="geometry" />
        </mxCell>
        <mxCell id="PmFzKxTWgb2I8v0q9J5C-9" value="" style="html=1;verticalAlign=bottom;endArrow=open;dashed=1;endSize=8;curved=0;rounded=0;" parent="1" edge="1">
          <mxGeometry relative="1" as="geometry">
            <mxPoint x="631.5" y="710" as="sourcePoint" />
            <mxPoint x="421.5" y="710" as="targetPoint" />
          </mxGeometry>
        </mxCell>
        <mxCell id="PmFzKxTWgb2I8v0q9J5C-10" value="return" style="edgeLabel;html=1;align=center;verticalAlign=middle;resizable=0;points=[];" parent="PmFzKxTWgb2I8v0q9J5C-9" vertex="1" connectable="0">
          <mxGeometry x="-0.0322" y="-2" relative="1" as="geometry">
            <mxPoint x="-3" y="-8" as="offset" />
          </mxGeometry>
        </mxCell>
        <mxCell id="PmFzKxTWgb2I8v0q9J5C-11" value="" style="endArrow=none;dashed=1;html=1;dashPattern=1 3;strokeWidth=2;rounded=0;" parent="1" edge="1">
          <mxGeometry width="50" height="50" relative="1" as="geometry">
            <mxPoint x="404.53" y="625" as="sourcePoint" />
            <mxPoint x="404.53" y="655" as="targetPoint" />
          </mxGeometry>
        </mxCell>
        <mxCell id="PmFzKxTWgb2I8v0q9J5C-12" value="" style="rounded=0;whiteSpace=wrap;html=1;rotation=90;" parent="1" vertex="1">
          <mxGeometry x="627.43" y="685" width="67.5" height="10" as="geometry" />
        </mxCell>
        <mxCell id="PmFzKxTWgb2I8v0q9J5C-13" value="" style="endArrow=none;dashed=1;html=1;dashPattern=1 3;strokeWidth=2;rounded=0;" parent="1" edge="1">
          <mxGeometry width="50" height="50" relative="1" as="geometry">
            <mxPoint x="660.78" y="625" as="sourcePoint" />
            <mxPoint x="660.78" y="655" as="targetPoint" />
          </mxGeometry>
        </mxCell>
        <mxCell id="PmFzKxTWgb2I8v0q9J5C-14" value="" style="rounded=0;whiteSpace=wrap;html=1;" parent="1" vertex="1">
          <mxGeometry x="361.17999999999995" y="585" width="103.75" height="30" as="geometry" />
        </mxCell>
        <mxCell id="PmFzKxTWgb2I8v0q9J5C-15" value="LoginView" style="text;html=1;strokeColor=none;fillColor=none;align=center;verticalAlign=middle;whiteSpace=wrap;rounded=0;" parent="1" vertex="1">
          <mxGeometry x="383.05999999999995" y="585" width="60" height="30" as="geometry" />
        </mxCell>
        <mxCell id="PmFzKxTWgb2I8v0q9J5C-17" value="" style="rounded=0;whiteSpace=wrap;html=1;" parent="1" vertex="1">
          <mxGeometry x="591.18" y="585" width="140" height="30" as="geometry" />
        </mxCell>
        <mxCell id="PmFzKxTWgb2I8v0q9J5C-18" value="LoginController" style="text;html=1;strokeColor=none;fillColor=none;align=center;verticalAlign=middle;whiteSpace=wrap;rounded=0;" parent="1" vertex="1">
          <mxGeometry x="631.18" y="585" width="60" height="30" as="geometry" />
        </mxCell>
        <mxCell id="PmFzKxTWgb2I8v0q9J5C-20" value="" style="endArrow=classic;html=1;rounded=0;" parent="1" edge="1">
          <mxGeometry width="50" height="50" relative="1" as="geometry">
            <mxPoint x="418.67999999999995" y="684.3299999999999" as="sourcePoint" />
            <mxPoint x="638.68" y="684.3299999999999" as="targetPoint" />
          </mxGeometry>
        </mxCell>
        <mxCell id="PmFzKxTWgb2I8v0q9J5C-21" value="ActionListener" style="text;html=1;align=center;verticalAlign=middle;resizable=0;points=[];autosize=1;strokeColor=none;fillColor=none;" parent="1" vertex="1">
          <mxGeometry x="481.17999999999995" y="655" width="100" height="30" as="geometry" />
        </mxCell>
        <mxCell id="PmFzKxTWgb2I8v0q9J5C-22" value="" style="rounded=0;whiteSpace=wrap;html=1;rotation=90;" parent="1" vertex="1">
          <mxGeometry x="744.25" y="752.19" width="201.87" height="10" as="geometry" />
        </mxCell>
        <mxCell id="PmFzKxTWgb2I8v0q9J5C-23" value="" style="endArrow=none;dashed=1;html=1;dashPattern=1 3;strokeWidth=2;rounded=0;" parent="1" edge="1">
          <mxGeometry width="50" height="50" relative="1" as="geometry">
            <mxPoint x="844.78" y="625" as="sourcePoint" />
            <mxPoint x="844.78" y="655" as="targetPoint" />
          </mxGeometry>
        </mxCell>
        <mxCell id="PmFzKxTWgb2I8v0q9J5C-24" value="" style="rounded=0;whiteSpace=wrap;html=1;" parent="1" vertex="1">
          <mxGeometry x="775.18" y="585" width="140" height="30" as="geometry" />
        </mxCell>
        <mxCell id="PmFzKxTWgb2I8v0q9J5C-25" value="GestioneAccountModel" style="text;html=1;strokeColor=none;fillColor=none;align=center;verticalAlign=middle;whiteSpace=wrap;rounded=0;" parent="1" vertex="1">
          <mxGeometry x="815.18" y="585" width="60" height="30" as="geometry" />
        </mxCell>
        <mxCell id="PmFzKxTWgb2I8v0q9J5C-28" value="" style="endArrow=classic;html=1;rounded=0;entryX=1;entryY=1;entryDx=0;entryDy=0;" parent="1" target="PmFzKxTWgb2I8v0q9J5C-30" edge="1">
          <mxGeometry width="50" height="50" relative="1" as="geometry">
            <mxPoint x="681.18" y="684.3499999999999" as="sourcePoint" />
            <mxPoint x="901.18" y="684.3499999999999" as="targetPoint" />
          </mxGeometry>
        </mxCell>
        <mxCell id="PmFzKxTWgb2I8v0q9J5C-30" value="actionPerformer()" style="text;html=1;strokeColor=none;fillColor=none;align=center;verticalAlign=middle;whiteSpace=wrap;rounded=0;" parent="1" vertex="1">
          <mxGeometry x="681.81" y="655" width="138.19" height="30" as="geometry" />
        </mxCell>
        <mxCell id="PmFzKxTWgb2I8v0q9J5C-34" value="Utente non registrato" style="shape=umlActor;verticalLabelPosition=bottom;verticalAlign=top;html=1;outlineConnect=0;" parent="1" vertex="1">
          <mxGeometry x="141.25" y="170" width="30" height="60" as="geometry" />
        </mxCell>
        <mxCell id="PmFzKxTWgb2I8v0q9J5C-35" value="" style="rounded=0;whiteSpace=wrap;html=1;rotation=90;" parent="1" vertex="1">
          <mxGeometry x="60" y="353.75" width="192.5" height="10" as="geometry" />
        </mxCell>
        <mxCell id="PmFzKxTWgb2I8v0q9J5C-36" value="" style="rounded=0;whiteSpace=wrap;html=1;rotation=90;" parent="1" vertex="1">
          <mxGeometry x="335.63" y="325.63" width="138.75" height="10" as="geometry" />
        </mxCell>
        <mxCell id="PmFzKxTWgb2I8v0q9J5C-37" value="" style="endArrow=classic;html=1;rounded=0;" parent="1" edge="1">
          <mxGeometry width="50" height="50" relative="1" as="geometry">
            <mxPoint x="171.25" y="290" as="sourcePoint" />
            <mxPoint x="391.25" y="290" as="targetPoint" />
          </mxGeometry>
        </mxCell>
        <mxCell id="PmFzKxTWgb2I8v0q9J5C-38" value="registrazioneView()" style="text;html=1;align=center;verticalAlign=middle;resizable=0;points=[];autosize=1;strokeColor=none;fillColor=none;" parent="1" vertex="1">
          <mxGeometry x="213.75" y="260" width="130" height="30" as="geometry" />
        </mxCell>
        <mxCell id="PmFzKxTWgb2I8v0q9J5C-39" value="" style="html=1;verticalAlign=bottom;endArrow=open;dashed=1;endSize=8;curved=0;rounded=0;" parent="1" edge="1">
          <mxGeometry relative="1" as="geometry">
            <mxPoint x="623.75" y="363.75" as="sourcePoint" />
            <mxPoint x="413.75000000000006" y="363.75" as="targetPoint" />
          </mxGeometry>
        </mxCell>
        <mxCell id="PmFzKxTWgb2I8v0q9J5C-40" value="return" style="edgeLabel;html=1;align=center;verticalAlign=middle;resizable=0;points=[];" parent="PmFzKxTWgb2I8v0q9J5C-39" vertex="1" connectable="0">
          <mxGeometry x="-0.0322" y="-2" relative="1" as="geometry">
            <mxPoint x="-3" y="-8" as="offset" />
          </mxGeometry>
        </mxCell>
        <mxCell id="PmFzKxTWgb2I8v0q9J5C-41" value="" style="endArrow=none;dashed=1;html=1;dashPattern=1 3;strokeWidth=2;rounded=0;" parent="1" edge="1">
          <mxGeometry width="50" height="50" relative="1" as="geometry">
            <mxPoint x="404.5999999999999" y="230" as="sourcePoint" />
            <mxPoint x="404.5999999999999" y="260" as="targetPoint" />
          </mxGeometry>
        </mxCell>
        <mxCell id="PmFzKxTWgb2I8v0q9J5C-42" value="" style="rounded=0;whiteSpace=wrap;html=1;rotation=90;" parent="1" vertex="1">
          <mxGeometry x="578.13" y="318.13" width="123.75" height="10" as="geometry" />
        </mxCell>
        <mxCell id="PmFzKxTWgb2I8v0q9J5C-43" value="" style="endArrow=none;dashed=1;html=1;dashPattern=1 3;strokeWidth=2;rounded=0;" parent="1" edge="1">
          <mxGeometry width="50" height="50" relative="1" as="geometry">
            <mxPoint x="639.5999999999999" y="230" as="sourcePoint" />
            <mxPoint x="639.5999999999999" y="260" as="targetPoint" />
          </mxGeometry>
        </mxCell>
        <mxCell id="PmFzKxTWgb2I8v0q9J5C-44" value="" style="rounded=0;whiteSpace=wrap;html=1;" parent="1" vertex="1">
          <mxGeometry x="361.25" y="190" width="103.75" height="30" as="geometry" />
        </mxCell>
        <mxCell id="PmFzKxTWgb2I8v0q9J5C-45" value="RegistrationView" style="text;html=1;strokeColor=none;fillColor=none;align=center;verticalAlign=middle;whiteSpace=wrap;rounded=0;" parent="1" vertex="1">
          <mxGeometry x="383.1300000000001" y="190" width="60" height="30" as="geometry" />
        </mxCell>
        <mxCell id="PmFzKxTWgb2I8v0q9J5C-46" value="" style="rounded=0;whiteSpace=wrap;html=1;" parent="1" vertex="1">
          <mxGeometry x="570" y="190" width="140" height="30" as="geometry" />
        </mxCell>
        <mxCell id="PmFzKxTWgb2I8v0q9J5C-47" value="RegistrationController" style="text;html=1;strokeColor=none;fillColor=none;align=center;verticalAlign=middle;whiteSpace=wrap;rounded=0;" parent="1" vertex="1">
          <mxGeometry x="610" y="190" width="60" height="30" as="geometry" />
        </mxCell>
        <mxCell id="PmFzKxTWgb2I8v0q9J5C-48" value="" style="endArrow=classic;html=1;rounded=0;entryX=1.052;entryY=0.993;entryDx=0;entryDy=0;entryPerimeter=0;" parent="1" target="PmFzKxTWgb2I8v0q9J5C-49" edge="1">
          <mxGeometry width="50" height="50" relative="1" as="geometry">
            <mxPoint x="418.75" y="289.3299999999999" as="sourcePoint" />
            <mxPoint x="638.75" y="289.3299999999999" as="targetPoint" />
          </mxGeometry>
        </mxCell>
        <mxCell id="PmFzKxTWgb2I8v0q9J5C-49" value="ActionListener" style="text;html=1;align=center;verticalAlign=middle;resizable=0;points=[];autosize=1;strokeColor=none;fillColor=none;" parent="1" vertex="1">
          <mxGeometry x="481.25" y="260" width="100" height="30" as="geometry" />
        </mxCell>
        <mxCell id="PmFzKxTWgb2I8v0q9J5C-50" value="" style="rounded=0;whiteSpace=wrap;html=1;rotation=90;" parent="1" vertex="1">
          <mxGeometry x="940.0000000000002" y="357.19000000000005" width="201.87" height="10" as="geometry" />
        </mxCell>
        <mxCell id="PmFzKxTWgb2I8v0q9J5C-51" value="" style="endArrow=none;dashed=1;html=1;dashPattern=1 3;strokeWidth=2;rounded=0;" parent="1" edge="1">
          <mxGeometry width="50" height="50" relative="1" as="geometry">
            <mxPoint x="1040.53" y="230" as="sourcePoint" />
            <mxPoint x="1040.53" y="260" as="targetPoint" />
          </mxGeometry>
        </mxCell>
        <mxCell id="PmFzKxTWgb2I8v0q9J5C-52" value="" style="rounded=0;whiteSpace=wrap;html=1;" parent="1" vertex="1">
          <mxGeometry x="970.9300000000001" y="190" width="140" height="30" as="geometry" />
        </mxCell>
        <mxCell id="PmFzKxTWgb2I8v0q9J5C-53" value="UtenteAutenticato" style="text;html=1;strokeColor=none;fillColor=none;align=center;verticalAlign=middle;whiteSpace=wrap;rounded=0;" parent="1" vertex="1">
          <mxGeometry x="1010.9300000000001" y="190" width="60" height="30" as="geometry" />
        </mxCell>
        <mxCell id="PmFzKxTWgb2I8v0q9J5C-54" value="" style="endArrow=classic;html=1;rounded=0;exitX=-0.06;exitY=1.02;exitDx=0;exitDy=0;exitPerimeter=0;" parent="1" source="PmFzKxTWgb2I8v0q9J5C-55" edge="1">
          <mxGeometry width="50" height="50" relative="1" as="geometry">
            <mxPoint x="810.47" y="289.3499999999999" as="sourcePoint" />
            <mxPoint x="1030.47" y="289.3499999999999" as="targetPoint" />
          </mxGeometry>
        </mxCell>
        <mxCell id="PmFzKxTWgb2I8v0q9J5C-55" value="impostaUtente (email, password, nome)" style="text;html=1;strokeColor=none;fillColor=none;align=center;verticalAlign=middle;whiteSpace=wrap;rounded=0;" parent="1" vertex="1">
          <mxGeometry x="860" y="260" width="165.47" height="30" as="geometry" />
        </mxCell>
        <mxCell id="PmFzKxTWgb2I8v0q9J5C-59" value="Utente autenticato" style="shape=umlActor;verticalLabelPosition=bottom;verticalAlign=top;html=1;outlineConnect=0;" parent="1" vertex="1">
          <mxGeometry x="142.5" y="1801" width="30" height="60" as="geometry" />
        </mxCell>
        <mxCell id="PmFzKxTWgb2I8v0q9J5C-60" value="" style="rounded=0;whiteSpace=wrap;html=1;rotation=90;" parent="1" vertex="1">
          <mxGeometry x="60" y="1983.5" width="195" height="10" as="geometry" />
        </mxCell>
        <mxCell id="PmFzKxTWgb2I8v0q9J5C-61" value="" style="rounded=0;whiteSpace=wrap;html=1;rotation=90;" parent="1" vertex="1">
          <mxGeometry x="372.5" y="1921" width="67.5" height="10" as="geometry" />
        </mxCell>
        <mxCell id="PmFzKxTWgb2I8v0q9J5C-62" value="" style="endArrow=classic;html=1;rounded=0;" parent="1" edge="1">
          <mxGeometry width="50" height="50" relative="1" as="geometry">
            <mxPoint x="172.5" y="1921" as="sourcePoint" />
            <mxPoint x="392.5" y="1921" as="targetPoint" />
          </mxGeometry>
        </mxCell>
        <mxCell id="PmFzKxTWgb2I8v0q9J5C-63" value="iscrizioneTorneo()" style="text;html=1;align=center;verticalAlign=middle;resizable=0;points=[];autosize=1;strokeColor=none;fillColor=none;" parent="1" vertex="1">
          <mxGeometry x="220" y="1891" width="120" height="30" as="geometry" />
        </mxCell>
        <mxCell id="PmFzKxTWgb2I8v0q9J5C-66" value="" style="endArrow=none;dashed=1;html=1;dashPattern=1 3;strokeWidth=2;rounded=0;" parent="1" edge="1">
          <mxGeometry width="50" height="50" relative="1" as="geometry">
            <mxPoint x="405.85" y="1861" as="sourcePoint" />
            <mxPoint x="405.85" y="1891" as="targetPoint" />
          </mxGeometry>
        </mxCell>
        <mxCell id="PmFzKxTWgb2I8v0q9J5C-67" value="" style="rounded=0;whiteSpace=wrap;html=1;rotation=90;" parent="1" vertex="1">
          <mxGeometry x="618.75" y="1921" width="67.5" height="10" as="geometry" />
        </mxCell>
        <mxCell id="PmFzKxTWgb2I8v0q9J5C-68" value="" style="endArrow=none;dashed=1;html=1;dashPattern=1 3;strokeWidth=2;rounded=0;" parent="1" edge="1">
          <mxGeometry width="50" height="50" relative="1" as="geometry">
            <mxPoint x="652.1" y="1861" as="sourcePoint" />
            <mxPoint x="652.1" y="1891" as="targetPoint" />
          </mxGeometry>
        </mxCell>
        <mxCell id="PmFzKxTWgb2I8v0q9J5C-69" value="" style="rounded=0;whiteSpace=wrap;html=1;" parent="1" vertex="1">
          <mxGeometry x="350" y="1821" width="130" height="30" as="geometry" />
        </mxCell>
        <mxCell id="PmFzKxTWgb2I8v0q9J5C-70" value="IscrizioneTorneoView" style="text;html=1;strokeColor=none;fillColor=none;align=center;verticalAlign=middle;whiteSpace=wrap;rounded=0;" parent="1" vertex="1">
          <mxGeometry x="384.38" y="1821" width="60" height="30" as="geometry" />
        </mxCell>
        <mxCell id="PmFzKxTWgb2I8v0q9J5C-71" value="" style="rounded=0;whiteSpace=wrap;html=1;" parent="1" vertex="1">
          <mxGeometry x="582.5" y="1821" width="150" height="30" as="geometry" />
        </mxCell>
        <mxCell id="PmFzKxTWgb2I8v0q9J5C-72" value="IscrizioneTorneoController" style="text;html=1;strokeColor=none;fillColor=none;align=center;verticalAlign=middle;whiteSpace=wrap;rounded=0;" parent="1" vertex="1">
          <mxGeometry x="627.5" y="1821" width="60" height="30" as="geometry" />
        </mxCell>
        <mxCell id="PmFzKxTWgb2I8v0q9J5C-87" value="" style="endArrow=classic;html=1;rounded=0;" parent="1" edge="1">
          <mxGeometry width="50" height="50" relative="1" as="geometry">
            <mxPoint x="422.5" y="1920.33" as="sourcePoint" />
            <mxPoint x="642.5" y="1920.33" as="targetPoint" />
          </mxGeometry>
        </mxCell>
        <mxCell id="PmFzKxTWgb2I8v0q9J5C-91" value="iscrizioneTorneoController()" style="text;html=1;strokeColor=none;fillColor=none;align=center;verticalAlign=middle;whiteSpace=wrap;rounded=0;" parent="1" vertex="1">
          <mxGeometry x="492.97" y="1891" width="60" height="30" as="geometry" />
        </mxCell>
        <mxCell id="PmFzKxTWgb2I8v0q9J5C-124" value="" style="rounded=0;whiteSpace=wrap;html=1;rotation=90;" parent="1" vertex="1">
          <mxGeometry x="1354.0000000000002" y="1988.19" width="201.87" height="10" as="geometry" />
        </mxCell>
        <mxCell id="PmFzKxTWgb2I8v0q9J5C-125" value="" style="endArrow=none;dashed=1;html=1;dashPattern=1 3;strokeWidth=2;rounded=0;" parent="1" edge="1">
          <mxGeometry width="50" height="50" relative="1" as="geometry">
            <mxPoint x="1454.53" y="1861" as="sourcePoint" />
            <mxPoint x="1454.53" y="1891" as="targetPoint" />
          </mxGeometry>
        </mxCell>
        <mxCell id="PmFzKxTWgb2I8v0q9J5C-126" value="" style="rounded=0;whiteSpace=wrap;html=1;" parent="1" vertex="1">
          <mxGeometry x="1384.93" y="1821" width="140" height="30" as="geometry" />
        </mxCell>
        <mxCell id="PmFzKxTWgb2I8v0q9J5C-127" value="DataBase" style="text;html=1;strokeColor=none;fillColor=none;align=center;verticalAlign=middle;whiteSpace=wrap;rounded=0;" parent="1" vertex="1">
          <mxGeometry x="1424.93" y="1821" width="60" height="30" as="geometry" />
        </mxCell>
        <mxCell id="PmFzKxTWgb2I8v0q9J5C-169" value="Utente autenticato" style="shape=umlActor;verticalLabelPosition=bottom;verticalAlign=top;html=1;outlineConnect=0;" parent="1" vertex="1">
          <mxGeometry x="142.5" y="2195" width="30" height="60" as="geometry" />
        </mxCell>
        <mxCell id="PmFzKxTWgb2I8v0q9J5C-170" value="" style="rounded=0;whiteSpace=wrap;html=1;rotation=90;" parent="1" vertex="1">
          <mxGeometry x="60" y="2377.5" width="195" height="10" as="geometry" />
        </mxCell>
        <mxCell id="PmFzKxTWgb2I8v0q9J5C-171" value="" style="rounded=0;whiteSpace=wrap;html=1;rotation=90;" parent="1" vertex="1">
          <mxGeometry x="372.5" y="2315" width="67.5" height="10" as="geometry" />
        </mxCell>
        <mxCell id="PmFzKxTWgb2I8v0q9J5C-172" value="" style="endArrow=classic;html=1;rounded=0;" parent="1" edge="1">
          <mxGeometry width="50" height="50" relative="1" as="geometry">
            <mxPoint x="172.5" y="2315" as="sourcePoint" />
            <mxPoint x="392.5" y="2315" as="targetPoint" />
          </mxGeometry>
        </mxCell>
        <mxCell id="PmFzKxTWgb2I8v0q9J5C-173" value="creazioneTorneo()" style="text;html=1;align=center;verticalAlign=middle;resizable=0;points=[];autosize=1;strokeColor=none;fillColor=none;" parent="1" vertex="1">
          <mxGeometry x="220" y="2285" width="120" height="30" as="geometry" />
        </mxCell>
        <mxCell id="PmFzKxTWgb2I8v0q9J5C-176" value="" style="endArrow=none;dashed=1;html=1;dashPattern=1 3;strokeWidth=2;rounded=0;" parent="1" edge="1">
          <mxGeometry width="50" height="50" relative="1" as="geometry">
            <mxPoint x="405.85" y="2255" as="sourcePoint" />
            <mxPoint x="405.85" y="2285" as="targetPoint" />
          </mxGeometry>
        </mxCell>
        <mxCell id="PmFzKxTWgb2I8v0q9J5C-177" value="" style="rounded=0;whiteSpace=wrap;html=1;rotation=90;" parent="1" vertex="1">
          <mxGeometry x="623.75" y="2311.4" width="67.5" height="10" as="geometry" />
        </mxCell>
        <mxCell id="PmFzKxTWgb2I8v0q9J5C-178" value="" style="endArrow=none;dashed=1;html=1;dashPattern=1 3;strokeWidth=2;rounded=0;" parent="1" edge="1">
          <mxGeometry width="50" height="50" relative="1" as="geometry">
            <mxPoint x="657.1" y="2251.4" as="sourcePoint" />
            <mxPoint x="657.1" y="2281.4" as="targetPoint" />
          </mxGeometry>
        </mxCell>
        <mxCell id="PmFzKxTWgb2I8v0q9J5C-179" value="" style="rounded=0;whiteSpace=wrap;html=1;" parent="1" vertex="1">
          <mxGeometry x="362.5" y="2215" width="103.75" height="30" as="geometry" />
        </mxCell>
        <mxCell id="PmFzKxTWgb2I8v0q9J5C-180" value="CreaTorneoView" style="text;html=1;strokeColor=none;fillColor=none;align=center;verticalAlign=middle;whiteSpace=wrap;rounded=0;" parent="1" vertex="1">
          <mxGeometry x="384.38" y="2215" width="60" height="30" as="geometry" />
        </mxCell>
        <mxCell id="PmFzKxTWgb2I8v0q9J5C-181" value="" style="rounded=0;whiteSpace=wrap;html=1;" parent="1" vertex="1">
          <mxGeometry x="587.5" y="2211.4" width="140" height="30" as="geometry" />
        </mxCell>
        <mxCell id="PmFzKxTWgb2I8v0q9J5C-182" value="CreaTorneoController" style="text;html=1;strokeColor=none;fillColor=none;align=center;verticalAlign=middle;whiteSpace=wrap;rounded=0;" parent="1" vertex="1">
          <mxGeometry x="627.5" y="2211.4" width="60" height="30" as="geometry" />
        </mxCell>
        <mxCell id="PmFzKxTWgb2I8v0q9J5C-183" value="" style="endArrow=classic;html=1;rounded=0;" parent="1" edge="1">
          <mxGeometry width="50" height="50" relative="1" as="geometry">
            <mxPoint x="420" y="2314.33" as="sourcePoint" />
            <mxPoint x="640" y="2314.33" as="targetPoint" />
          </mxGeometry>
        </mxCell>
        <mxCell id="PmFzKxTWgb2I8v0q9J5C-184" value="creazioneTorneoController()" style="text;html=1;align=center;verticalAlign=middle;resizable=0;points=[];autosize=1;strokeColor=none;fillColor=none;" parent="1" vertex="1">
          <mxGeometry x="447.5" y="2285" width="170" height="30" as="geometry" />
        </mxCell>
        <mxCell id="PmFzKxTWgb2I8v0q9J5C-185" value="" style="rounded=0;whiteSpace=wrap;html=1;rotation=90;" parent="1" vertex="1">
          <mxGeometry x="830.0000000000002" y="2375" width="201.87" height="10" as="geometry" />
        </mxCell>
        <mxCell id="PmFzKxTWgb2I8v0q9J5C-186" value="" style="endArrow=none;dashed=1;html=1;dashPattern=1 3;strokeWidth=2;rounded=0;" parent="1" edge="1">
          <mxGeometry width="50" height="50" relative="1" as="geometry">
            <mxPoint x="930.53" y="2247.8100000000004" as="sourcePoint" />
            <mxPoint x="930.53" y="2277.8100000000004" as="targetPoint" />
          </mxGeometry>
        </mxCell>
        <mxCell id="PmFzKxTWgb2I8v0q9J5C-187" value="" style="rounded=0;whiteSpace=wrap;html=1;" parent="1" vertex="1">
          <mxGeometry x="860.9300000000001" y="2207.8100000000004" width="140" height="30" as="geometry" />
        </mxCell>
        <mxCell id="PmFzKxTWgb2I8v0q9J5C-188" value="UtenteAutenticato" style="text;html=1;strokeColor=none;fillColor=none;align=center;verticalAlign=middle;whiteSpace=wrap;rounded=0;" parent="1" vertex="1">
          <mxGeometry x="900.9300000000001" y="2207.8100000000004" width="60" height="30" as="geometry" />
        </mxCell>
        <mxCell id="PmFzKxTWgb2I8v0q9J5C-189" value="" style="endArrow=classic;html=1;rounded=0;" parent="1" edge="1">
          <mxGeometry width="50" height="50" relative="1" as="geometry">
            <mxPoint x="677.5" y="2310.75" as="sourcePoint" />
            <mxPoint x="910" y="2310" as="targetPoint" />
          </mxGeometry>
        </mxCell>
        <mxCell id="PmFzKxTWgb2I8v0q9J5C-201" value="" style="rounded=0;whiteSpace=wrap;html=1;rotation=90;" parent="1" vertex="1">
          <mxGeometry x="1210.0000000000002" y="2375" width="201.87" height="10" as="geometry" />
        </mxCell>
        <mxCell id="PmFzKxTWgb2I8v0q9J5C-202" value="" style="endArrow=none;dashed=1;html=1;dashPattern=1 3;strokeWidth=2;rounded=0;" parent="1" edge="1">
          <mxGeometry width="50" height="50" relative="1" as="geometry">
            <mxPoint x="1310.53" y="2247.8100000000004" as="sourcePoint" />
            <mxPoint x="1310.53" y="2277.8100000000004" as="targetPoint" />
          </mxGeometry>
        </mxCell>
        <mxCell id="PmFzKxTWgb2I8v0q9J5C-203" value="" style="rounded=0;whiteSpace=wrap;html=1;" parent="1" vertex="1">
          <mxGeometry x="1240.93" y="2207.8100000000004" width="140" height="30" as="geometry" />
        </mxCell>
        <mxCell id="PmFzKxTWgb2I8v0q9J5C-204" value="DataBase" style="text;html=1;strokeColor=none;fillColor=none;align=center;verticalAlign=middle;whiteSpace=wrap;rounded=0;" parent="1" vertex="1">
          <mxGeometry x="1280.93" y="2207.8100000000004" width="60" height="30" as="geometry" />
        </mxCell>
        <mxCell id="PmFzKxTWgb2I8v0q9J5C-205" value="" style="endArrow=classic;html=1;rounded=0;" parent="1" edge="1">
          <mxGeometry width="50" height="50" relative="1" as="geometry">
            <mxPoint x="950" y="2306.98" as="sourcePoint" />
            <mxPoint x="1290" y="2305" as="targetPoint" />
          </mxGeometry>
        </mxCell>
        <mxCell id="PmFzKxTWgb2I8v0q9J5C-206" value="creazioneTorneo(nomeTorneo, gioco, dataInizio, dataFine, visibilità)" style="text;html=1;strokeColor=none;fillColor=none;align=center;verticalAlign=middle;whiteSpace=wrap;rounded=0;" parent="1" vertex="1">
          <mxGeometry x="938" y="2273" width="370" height="30" as="geometry" />
        </mxCell>
        <mxCell id="dA8aLjZPVSyw3G796LqZ-2" value="" style="rounded=0;whiteSpace=wrap;html=1;rotation=90;" parent="1" vertex="1">
          <mxGeometry x="1163.6800000000003" y="357.19000000000005" width="201.87" height="10" as="geometry" />
        </mxCell>
        <mxCell id="dA8aLjZPVSyw3G796LqZ-4" value="" style="rounded=0;whiteSpace=wrap;html=1;" parent="1" vertex="1">
          <mxGeometry x="1202.1200000000001" y="190" width="140" height="30" as="geometry" />
        </mxCell>
        <mxCell id="dA8aLjZPVSyw3G796LqZ-5" value="UtenteDAO" style="text;html=1;strokeColor=none;fillColor=none;align=center;verticalAlign=middle;whiteSpace=wrap;rounded=0;" parent="1" vertex="1">
          <mxGeometry x="1239.1200000000001" y="190" width="60" height="30" as="geometry" />
        </mxCell>
        <mxCell id="dA8aLjZPVSyw3G796LqZ-6" value="" style="endArrow=none;dashed=1;html=1;dashPattern=1 3;strokeWidth=2;rounded=0;" parent="1" edge="1">
          <mxGeometry width="50" height="50" relative="1" as="geometry">
            <mxPoint x="1264.68" y="256" as="sourcePoint" />
            <mxPoint x="1264.68" y="226" as="targetPoint" />
          </mxGeometry>
        </mxCell>
        <mxCell id="dA8aLjZPVSyw3G796LqZ-7" value="insertUtente(UtenteAutenticato)" style="text;html=1;strokeColor=none;fillColor=none;align=center;verticalAlign=middle;whiteSpace=wrap;rounded=0;" parent="1" vertex="1">
          <mxGeometry x="1282.93" y="260" width="208.75" height="30" as="geometry" />
        </mxCell>
        <mxCell id="dA8aLjZPVSyw3G796LqZ-8" value="" style="endArrow=classic;html=1;rounded=0;entryX=1;entryY=1;entryDx=0;entryDy=0;" parent="1" target="dA8aLjZPVSyw3G796LqZ-7" edge="1">
          <mxGeometry width="50" height="50" relative="1" as="geometry">
            <mxPoint x="1279.68" y="290" as="sourcePoint" />
            <mxPoint x="1189.68" y="290" as="targetPoint" />
          </mxGeometry>
        </mxCell>
        <mxCell id="dA8aLjZPVSyw3G796LqZ-9" value="" style="rounded=0;whiteSpace=wrap;html=1;" parent="1" vertex="1">
          <mxGeometry x="1440.6200000000001" y="190" width="140" height="30" as="geometry" />
        </mxCell>
        <mxCell id="dA8aLjZPVSyw3G796LqZ-10" value="DataBase" style="text;html=1;strokeColor=none;fillColor=none;align=center;verticalAlign=middle;whiteSpace=wrap;rounded=0;" parent="1" vertex="1">
          <mxGeometry x="1480.6200000000001" y="190" width="60" height="30" as="geometry" />
        </mxCell>
        <mxCell id="dA8aLjZPVSyw3G796LqZ-11" value="" style="rounded=0;whiteSpace=wrap;html=1;rotation=90;" parent="1" vertex="1">
          <mxGeometry x="1409.6800000000003" y="363.75000000000006" width="201.87" height="10" as="geometry" />
        </mxCell>
        <mxCell id="dA8aLjZPVSyw3G796LqZ-14" value="" style="endArrow=none;dashed=1;html=1;dashPattern=1 3;strokeWidth=2;rounded=0;entryX=0.5;entryY=1;entryDx=0;entryDy=0;" parent="1" target="dA8aLjZPVSyw3G796LqZ-10" edge="1">
          <mxGeometry width="50" height="50" relative="1" as="geometry">
            <mxPoint x="1509.69" y="255" as="sourcePoint" />
            <mxPoint x="1234.69" y="241" as="targetPoint" />
          </mxGeometry>
        </mxCell>
        <mxCell id="_xcE8ZJ6tuB9mQ8rcjDb-1" value="registrazioneCredenziali(id, username, email, password)" style="text;whiteSpace=wrap;" parent="1" vertex="1">
          <mxGeometry x="1072.18" y="243" width="188" height="40" as="geometry" />
        </mxCell>
        <mxCell id="_xcE8ZJ6tuB9mQ8rcjDb-2" value="" style="endArrow=classic;html=1;rounded=0;" parent="1" edge="1">
          <mxGeometry width="50" height="50" relative="1" as="geometry">
            <mxPoint x="1059.68" y="289" as="sourcePoint" />
            <mxPoint x="1252.1200000000001" y="289" as="targetPoint" />
          </mxGeometry>
        </mxCell>
        <mxCell id="_xcE8ZJ6tuB9mQ8rcjDb-3" value="" style="rounded=0;whiteSpace=wrap;html=1;rotation=90;" parent="1" vertex="1">
          <mxGeometry x="743.13" y="353.13" width="193.75" height="10" as="geometry" />
        </mxCell>
        <mxCell id="_xcE8ZJ6tuB9mQ8rcjDb-4" value="" style="endArrow=none;dashed=1;html=1;dashPattern=1 3;strokeWidth=2;rounded=0;" parent="1" edge="1">
          <mxGeometry width="50" height="50" relative="1" as="geometry">
            <mxPoint x="839.5999999999999" y="230" as="sourcePoint" />
            <mxPoint x="839.5999999999999" y="260" as="targetPoint" />
          </mxGeometry>
        </mxCell>
        <mxCell id="_xcE8ZJ6tuB9mQ8rcjDb-5" value="" style="rounded=0;whiteSpace=wrap;html=1;" parent="1" vertex="1">
          <mxGeometry x="770" y="190" width="140" height="30" as="geometry" />
        </mxCell>
        <mxCell id="_xcE8ZJ6tuB9mQ8rcjDb-6" value="RegistrationModel" style="text;html=1;strokeColor=none;fillColor=none;align=center;verticalAlign=middle;whiteSpace=wrap;rounded=0;" parent="1" vertex="1">
          <mxGeometry x="810" y="190" width="60" height="30" as="geometry" />
        </mxCell>
        <mxCell id="_xcE8ZJ6tuB9mQ8rcjDb-7" value="" style="endArrow=classic;html=1;rounded=0;" parent="1" edge="1">
          <mxGeometry width="50" height="50" relative="1" as="geometry">
            <mxPoint x="650" y="290" as="sourcePoint" />
            <mxPoint x="827" y="290" as="targetPoint" />
          </mxGeometry>
        </mxCell>
        <mxCell id="_xcE8ZJ6tuB9mQ8rcjDb-8" value="&lt;span style=&quot;color: rgb(0, 0, 0); font-family: Helvetica; font-size: 12px; font-style: normal; font-variant-ligatures: normal; font-variant-caps: normal; font-weight: 400; letter-spacing: normal; orphans: 2; text-align: center; text-indent: 0px; text-transform: none; widows: 2; word-spacing: 0px; -webkit-text-stroke-width: 0px; background-color: rgb(251, 251, 251); text-decoration-thickness: initial; text-decoration-style: initial; text-decoration-color: initial; float: none; display: inline !important;&quot;&gt;actionPerformed()&lt;/span&gt;" style="text;whiteSpace=wrap;html=1;" parent="1" vertex="1">
          <mxGeometry x="683.13" y="260" width="160" height="40" as="geometry" />
        </mxCell>
        <mxCell id="Qi0Wa9hxT18hAOxOMV2e-1" value="" style="rounded=0;whiteSpace=wrap;html=1;rotation=90;" parent="1" vertex="1">
          <mxGeometry x="983.6800000000003" y="1988.19" width="201.87" height="10" as="geometry" />
        </mxCell>
        <mxCell id="Qi0Wa9hxT18hAOxOMV2e-2" value="" style="rounded=0;whiteSpace=wrap;html=1;" parent="1" vertex="1">
          <mxGeometry x="1022.1200000000001" y="1821" width="140" height="30" as="geometry" />
        </mxCell>
        <mxCell id="Qi0Wa9hxT18hAOxOMV2e-3" value="TorneoDAO" style="text;html=1;strokeColor=none;fillColor=none;align=center;verticalAlign=middle;whiteSpace=wrap;rounded=0;" parent="1" vertex="1">
          <mxGeometry x="1059.1200000000001" y="1821" width="60" height="30" as="geometry" />
        </mxCell>
        <mxCell id="Qi0Wa9hxT18hAOxOMV2e-4" value="" style="endArrow=none;dashed=1;html=1;dashPattern=1 3;strokeWidth=2;rounded=0;" parent="1" edge="1">
          <mxGeometry width="50" height="50" relative="1" as="geometry">
            <mxPoint x="1084.68" y="1887" as="sourcePoint" />
            <mxPoint x="1084.68" y="1857" as="targetPoint" />
          </mxGeometry>
        </mxCell>
        <mxCell id="Qi0Wa9hxT18hAOxOMV2e-8" value="&lt;span style=&quot;color: rgb(0, 0, 0); font-family: Helvetica; font-size: 12px; font-style: normal; font-variant-ligatures: normal; font-variant-caps: normal; font-weight: 400; letter-spacing: normal; orphans: 2; text-align: center; text-indent: 0px; text-transform: none; widows: 2; word-spacing: 0px; -webkit-text-stroke-width: 0px; background-color: rgb(251, 251, 251); text-decoration-thickness: initial; text-decoration-style: initial; text-decoration-color: initial; float: none; display: inline !important;&quot;&gt;insertPartecipante(emailUtente, nomeTorneo, punteggio)&lt;/span&gt;" style="text;whiteSpace=wrap;html=1;" parent="1" vertex="1">
          <mxGeometry x="1113" y="1882" width="340" height="40" as="geometry" />
        </mxCell>
        <mxCell id="Qi0Wa9hxT18hAOxOMV2e-9" value="" style="endArrow=classic;html=1;rounded=0;" parent="1" edge="1">
          <mxGeometry width="50" height="50" relative="1" as="geometry">
            <mxPoint x="1114" y="1921" as="sourcePoint" />
            <mxPoint x="1424" y="1921" as="targetPoint" />
          </mxGeometry>
        </mxCell>
        <mxCell id="Qi0Wa9hxT18hAOxOMV2e-10" value="" style="endArrow=classic;html=1;rounded=0;" parent="1" edge="1">
          <mxGeometry width="50" height="50" relative="1" as="geometry">
            <mxPoint x="874" y="1921" as="sourcePoint" />
            <mxPoint x="1064" y="1921" as="targetPoint" />
          </mxGeometry>
        </mxCell>
        <mxCell id="Qi0Wa9hxT18hAOxOMV2e-11" value="" style="rounded=0;whiteSpace=wrap;html=1;rotation=90;" parent="1" vertex="1">
          <mxGeometry x="744.0000000000002" y="1988.19" width="201.87" height="10" as="geometry" />
        </mxCell>
        <mxCell id="Qi0Wa9hxT18hAOxOMV2e-12" value="" style="endArrow=none;dashed=1;html=1;dashPattern=1 3;strokeWidth=2;rounded=0;" parent="1" edge="1">
          <mxGeometry width="50" height="50" relative="1" as="geometry">
            <mxPoint x="844.53" y="1861" as="sourcePoint" />
            <mxPoint x="844.53" y="1891" as="targetPoint" />
          </mxGeometry>
        </mxCell>
        <mxCell id="Qi0Wa9hxT18hAOxOMV2e-13" value="" style="rounded=0;whiteSpace=wrap;html=1;" parent="1" vertex="1">
          <mxGeometry x="774.9300000000001" y="1821" width="140" height="30" as="geometry" />
        </mxCell>
        <mxCell id="Qi0Wa9hxT18hAOxOMV2e-14" value="UtenteAutenticato" style="text;html=1;strokeColor=none;fillColor=none;align=center;verticalAlign=middle;whiteSpace=wrap;rounded=0;" parent="1" vertex="1">
          <mxGeometry x="814.9300000000001" y="1821" width="60" height="30" as="geometry" />
        </mxCell>
        <mxCell id="Qi0Wa9hxT18hAOxOMV2e-15" value="" style="endArrow=classic;html=1;rounded=0;" parent="1" edge="1">
          <mxGeometry width="50" height="50" relative="1" as="geometry">
            <mxPoint x="688" y="1921" as="sourcePoint" />
            <mxPoint x="829.8699999999999" y="1920" as="targetPoint" />
          </mxGeometry>
        </mxCell>
        <mxCell id="Qi0Wa9hxT18hAOxOMV2e-16" value="ListenerIscrizione" style="text;html=1;align=center;verticalAlign=middle;resizable=0;points=[];autosize=1;strokeColor=none;fillColor=none;" parent="1" vertex="1">
          <mxGeometry x="694" y="1885" width="120" height="30" as="geometry" />
        </mxCell>
        <mxCell id="Qi0Wa9hxT18hAOxOMV2e-17" value="iscrizioneTorneo(email, nomeTorneo)" style="text;html=1;align=center;verticalAlign=middle;resizable=0;points=[];autosize=1;strokeColor=none;fillColor=none;" parent="1" vertex="1">
          <mxGeometry x="852" y="1881" width="220" height="30" as="geometry" />
        </mxCell>
        <mxCell id="M7Dh-_FwcG7-ZmyJeiV2-1" value="ListenerCreazione" style="text;html=1;align=center;verticalAlign=middle;resizable=0;points=[];autosize=1;strokeColor=none;fillColor=none;" parent="1" vertex="1">
          <mxGeometry x="729" y="2273" width="120" height="30" as="geometry" />
        </mxCell>
        <mxCell id="XtpnshZH6VqtbmfVQ0za-1" value="Utente autenticato" style="shape=umlActor;verticalLabelPosition=bottom;verticalAlign=top;html=1;outlineConnect=0;" parent="1" vertex="1">
          <mxGeometry x="146.5" y="2578" width="30" height="60" as="geometry" />
        </mxCell>
        <mxCell id="XtpnshZH6VqtbmfVQ0za-2" value="" style="rounded=0;whiteSpace=wrap;html=1;rotation=90;" parent="1" vertex="1">
          <mxGeometry x="64" y="2760.5" width="195" height="10" as="geometry" />
        </mxCell>
        <mxCell id="XtpnshZH6VqtbmfVQ0za-3" value="" style="rounded=0;whiteSpace=wrap;html=1;rotation=90;" parent="1" vertex="1">
          <mxGeometry x="376.5" y="2698" width="67.5" height="10" as="geometry" />
        </mxCell>
        <mxCell id="XtpnshZH6VqtbmfVQ0za-4" value="" style="endArrow=classic;html=1;rounded=0;" parent="1" edge="1">
          <mxGeometry width="50" height="50" relative="1" as="geometry">
            <mxPoint x="176.5" y="2698" as="sourcePoint" />
            <mxPoint x="396.5" y="2698" as="targetPoint" />
          </mxGeometry>
        </mxCell>
        <mxCell id="XtpnshZH6VqtbmfVQ0za-5" value="eliminaTorneo()" style="text;html=1;align=center;verticalAlign=middle;resizable=0;points=[];autosize=1;strokeColor=none;fillColor=none;" parent="1" vertex="1">
          <mxGeometry x="229" y="2668" width="110" height="30" as="geometry" />
        </mxCell>
        <mxCell id="XtpnshZH6VqtbmfVQ0za-8" value="" style="endArrow=none;dashed=1;html=1;dashPattern=1 3;strokeWidth=2;rounded=0;" parent="1" edge="1">
          <mxGeometry width="50" height="50" relative="1" as="geometry">
            <mxPoint x="409.85" y="2638" as="sourcePoint" />
            <mxPoint x="409.85" y="2668" as="targetPoint" />
          </mxGeometry>
        </mxCell>
        <mxCell id="XtpnshZH6VqtbmfVQ0za-9" value="" style="rounded=0;whiteSpace=wrap;html=1;rotation=90;" parent="1" vertex="1">
          <mxGeometry x="627.75" y="2694.4" width="67.5" height="10" as="geometry" />
        </mxCell>
        <mxCell id="XtpnshZH6VqtbmfVQ0za-10" value="" style="endArrow=none;dashed=1;html=1;dashPattern=1 3;strokeWidth=2;rounded=0;" parent="1" edge="1">
          <mxGeometry width="50" height="50" relative="1" as="geometry">
            <mxPoint x="661.1" y="2634.4" as="sourcePoint" />
            <mxPoint x="661.1" y="2664.4" as="targetPoint" />
          </mxGeometry>
        </mxCell>
        <mxCell id="XtpnshZH6VqtbmfVQ0za-11" value="" style="rounded=0;whiteSpace=wrap;html=1;" parent="1" vertex="1">
          <mxGeometry x="366.5" y="2598" width="103.75" height="30" as="geometry" />
        </mxCell>
        <mxCell id="XtpnshZH6VqtbmfVQ0za-12" value="TorneoView" style="text;html=1;strokeColor=none;fillColor=none;align=center;verticalAlign=middle;whiteSpace=wrap;rounded=0;" parent="1" vertex="1">
          <mxGeometry x="388.38" y="2598" width="60" height="30" as="geometry" />
        </mxCell>
        <mxCell id="XtpnshZH6VqtbmfVQ0za-13" value="" style="rounded=0;whiteSpace=wrap;html=1;" parent="1" vertex="1">
          <mxGeometry x="591.5" y="2594.4" width="140" height="30" as="geometry" />
        </mxCell>
        <mxCell id="XtpnshZH6VqtbmfVQ0za-14" value="EliminaTorneoController" style="text;html=1;strokeColor=none;fillColor=none;align=center;verticalAlign=middle;whiteSpace=wrap;rounded=0;" parent="1" vertex="1">
          <mxGeometry x="631.5" y="2594.4" width="60" height="30" as="geometry" />
        </mxCell>
        <mxCell id="XtpnshZH6VqtbmfVQ0za-15" value="" style="endArrow=classic;html=1;rounded=0;" parent="1" edge="1">
          <mxGeometry width="50" height="50" relative="1" as="geometry">
            <mxPoint x="424" y="2697.33" as="sourcePoint" />
            <mxPoint x="644" y="2697.33" as="targetPoint" />
          </mxGeometry>
        </mxCell>
        <mxCell id="XtpnshZH6VqtbmfVQ0za-16" value="eliminaTorneoController()" style="text;html=1;align=center;verticalAlign=middle;resizable=0;points=[];autosize=1;strokeColor=none;fillColor=none;" parent="1" vertex="1">
          <mxGeometry x="456.5" y="2668" width="160" height="30" as="geometry" />
        </mxCell>
        <mxCell id="XtpnshZH6VqtbmfVQ0za-17" value="" style="rounded=0;whiteSpace=wrap;html=1;rotation=90;" parent="1" vertex="1">
          <mxGeometry x="834.0000000000002" y="2758" width="201.87" height="10" as="geometry" />
        </mxCell>
        <mxCell id="XtpnshZH6VqtbmfVQ0za-18" value="" style="endArrow=none;dashed=1;html=1;dashPattern=1 3;strokeWidth=2;rounded=0;" parent="1" edge="1">
          <mxGeometry width="50" height="50" relative="1" as="geometry">
            <mxPoint x="934.53" y="2630.8100000000004" as="sourcePoint" />
            <mxPoint x="934.53" y="2660.8100000000004" as="targetPoint" />
          </mxGeometry>
        </mxCell>
        <mxCell id="XtpnshZH6VqtbmfVQ0za-19" value="" style="rounded=0;whiteSpace=wrap;html=1;" parent="1" vertex="1">
          <mxGeometry x="864.9300000000001" y="2590.8100000000004" width="140" height="30" as="geometry" />
        </mxCell>
        <mxCell id="XtpnshZH6VqtbmfVQ0za-20" value="UtenteAutenticato" style="text;html=1;strokeColor=none;fillColor=none;align=center;verticalAlign=middle;whiteSpace=wrap;rounded=0;" parent="1" vertex="1">
          <mxGeometry x="904.9300000000001" y="2590.8100000000004" width="60" height="30" as="geometry" />
        </mxCell>
        <mxCell id="XtpnshZH6VqtbmfVQ0za-21" value="" style="endArrow=classic;html=1;rounded=0;" parent="1" edge="1">
          <mxGeometry width="50" height="50" relative="1" as="geometry">
            <mxPoint x="681.5" y="2693.75" as="sourcePoint" />
            <mxPoint x="914" y="2693" as="targetPoint" />
          </mxGeometry>
        </mxCell>
        <mxCell id="XtpnshZH6VqtbmfVQ0za-24" value="" style="rounded=0;whiteSpace=wrap;html=1;rotation=90;" parent="1" vertex="1">
          <mxGeometry x="1214.0000000000002" y="2758" width="201.87" height="10" as="geometry" />
        </mxCell>
        <mxCell id="XtpnshZH6VqtbmfVQ0za-25" value="" style="endArrow=none;dashed=1;html=1;dashPattern=1 3;strokeWidth=2;rounded=0;" parent="1" edge="1">
          <mxGeometry width="50" height="50" relative="1" as="geometry">
            <mxPoint x="1314.53" y="2630.8100000000004" as="sourcePoint" />
            <mxPoint x="1314.53" y="2660.8100000000004" as="targetPoint" />
          </mxGeometry>
        </mxCell>
        <mxCell id="XtpnshZH6VqtbmfVQ0za-26" value="" style="rounded=0;whiteSpace=wrap;html=1;" parent="1" vertex="1">
          <mxGeometry x="1244.93" y="2590.8100000000004" width="140" height="30" as="geometry" />
        </mxCell>
        <mxCell id="XtpnshZH6VqtbmfVQ0za-27" value="DataBase" style="text;html=1;strokeColor=none;fillColor=none;align=center;verticalAlign=middle;whiteSpace=wrap;rounded=0;" parent="1" vertex="1">
          <mxGeometry x="1284.93" y="2590.8100000000004" width="60" height="30" as="geometry" />
        </mxCell>
        <mxCell id="XtpnshZH6VqtbmfVQ0za-28" value="" style="endArrow=classic;html=1;rounded=0;" parent="1" edge="1">
          <mxGeometry width="50" height="50" relative="1" as="geometry">
            <mxPoint x="954" y="2689.98" as="sourcePoint" />
            <mxPoint x="1294" y="2688" as="targetPoint" />
          </mxGeometry>
        </mxCell>
        <mxCell id="XtpnshZH6VqtbmfVQ0za-29" value="deleteTorneo(nomeTorneo)" style="text;html=1;strokeColor=none;fillColor=none;align=center;verticalAlign=middle;whiteSpace=wrap;rounded=0;" parent="1" vertex="1">
          <mxGeometry x="942" y="2656" width="370" height="30" as="geometry" />
        </mxCell>
        <mxCell id="XtpnshZH6VqtbmfVQ0za-30" value="ListenerEliminazione" style="text;html=1;align=center;verticalAlign=middle;resizable=0;points=[];autosize=1;strokeColor=none;fillColor=none;" parent="1" vertex="1">
          <mxGeometry x="728" y="2656" width="130" height="30" as="geometry" />
        </mxCell>
        <mxCell id="XtpnshZH6VqtbmfVQ0za-31" value="Utente autenticato" style="shape=umlActor;verticalLabelPosition=bottom;verticalAlign=top;html=1;outlineConnect=0;" parent="1" vertex="1">
          <mxGeometry x="146.5" y="2967" width="30" height="60" as="geometry" />
        </mxCell>
        <mxCell id="XtpnshZH6VqtbmfVQ0za-32" value="" style="rounded=0;whiteSpace=wrap;html=1;rotation=90;" parent="1" vertex="1">
          <mxGeometry x="64" y="3149.5" width="195" height="10" as="geometry" />
        </mxCell>
        <mxCell id="XtpnshZH6VqtbmfVQ0za-33" value="" style="rounded=0;whiteSpace=wrap;html=1;rotation=90;" parent="1" vertex="1">
          <mxGeometry x="376.5" y="3087" width="67.5" height="10" as="geometry" />
        </mxCell>
        <mxCell id="XtpnshZH6VqtbmfVQ0za-34" value="" style="endArrow=classic;html=1;rounded=0;" parent="1" edge="1">
          <mxGeometry width="50" height="50" relative="1" as="geometry">
            <mxPoint x="176.5" y="3087" as="sourcePoint" />
            <mxPoint x="396.5" y="3087" as="targetPoint" />
          </mxGeometry>
        </mxCell>
        <mxCell id="XtpnshZH6VqtbmfVQ0za-35" value="disiscrizioneTorneo()" style="text;html=1;align=center;verticalAlign=middle;resizable=0;points=[];autosize=1;strokeColor=none;fillColor=none;" parent="1" vertex="1">
          <mxGeometry x="219" y="3057" width="130" height="30" as="geometry" />
        </mxCell>
        <mxCell id="XtpnshZH6VqtbmfVQ0za-38" value="" style="endArrow=none;dashed=1;html=1;dashPattern=1 3;strokeWidth=2;rounded=0;" parent="1" edge="1">
          <mxGeometry width="50" height="50" relative="1" as="geometry">
            <mxPoint x="409.85" y="3027" as="sourcePoint" />
            <mxPoint x="409.85" y="3057" as="targetPoint" />
          </mxGeometry>
        </mxCell>
        <mxCell id="XtpnshZH6VqtbmfVQ0za-39" value="" style="rounded=0;whiteSpace=wrap;html=1;rotation=90;" parent="1" vertex="1">
          <mxGeometry x="627.75" y="3083.4" width="67.5" height="10" as="geometry" />
        </mxCell>
        <mxCell id="XtpnshZH6VqtbmfVQ0za-40" value="" style="endArrow=none;dashed=1;html=1;dashPattern=1 3;strokeWidth=2;rounded=0;" parent="1" edge="1">
          <mxGeometry width="50" height="50" relative="1" as="geometry">
            <mxPoint x="661.1" y="3023.4" as="sourcePoint" />
            <mxPoint x="661.1" y="3053.4" as="targetPoint" />
          </mxGeometry>
        </mxCell>
        <mxCell id="XtpnshZH6VqtbmfVQ0za-41" value="" style="rounded=0;whiteSpace=wrap;html=1;" parent="1" vertex="1">
          <mxGeometry x="366.5" y="2987" width="103.75" height="30" as="geometry" />
        </mxCell>
        <mxCell id="XtpnshZH6VqtbmfVQ0za-42" value="TorneoView" style="text;html=1;strokeColor=none;fillColor=none;align=center;verticalAlign=middle;whiteSpace=wrap;rounded=0;" parent="1" vertex="1">
          <mxGeometry x="388.38" y="2987" width="60" height="30" as="geometry" />
        </mxCell>
        <mxCell id="XtpnshZH6VqtbmfVQ0za-43" value="" style="rounded=0;whiteSpace=wrap;html=1;" parent="1" vertex="1">
          <mxGeometry x="584" y="2983.4" width="160" height="30" as="geometry" />
        </mxCell>
        <mxCell id="XtpnshZH6VqtbmfVQ0za-44" value="DisiscrizioneTorneoController" style="text;html=1;strokeColor=none;fillColor=none;align=center;verticalAlign=middle;whiteSpace=wrap;rounded=0;" parent="1" vertex="1">
          <mxGeometry x="631.5" y="2983.4" width="60" height="30" as="geometry" />
        </mxCell>
        <mxCell id="XtpnshZH6VqtbmfVQ0za-45" value="" style="endArrow=classic;html=1;rounded=0;" parent="1" edge="1">
          <mxGeometry width="50" height="50" relative="1" as="geometry">
            <mxPoint x="424" y="3086.33" as="sourcePoint" />
            <mxPoint x="644" y="3086.33" as="targetPoint" />
          </mxGeometry>
        </mxCell>
        <mxCell id="XtpnshZH6VqtbmfVQ0za-46" value="disiscrizioneTorneoController()" style="text;html=1;align=center;verticalAlign=middle;resizable=0;points=[];autosize=1;strokeColor=none;fillColor=none;" parent="1" vertex="1">
          <mxGeometry x="441.5" y="3057" width="190" height="30" as="geometry" />
        </mxCell>
        <mxCell id="XtpnshZH6VqtbmfVQ0za-47" value="" style="rounded=0;whiteSpace=wrap;html=1;rotation=90;" parent="1" vertex="1">
          <mxGeometry x="834.0000000000002" y="3147" width="201.87" height="10" as="geometry" />
        </mxCell>
        <mxCell id="XtpnshZH6VqtbmfVQ0za-48" value="" style="endArrow=none;dashed=1;html=1;dashPattern=1 3;strokeWidth=2;rounded=0;" parent="1" edge="1">
          <mxGeometry width="50" height="50" relative="1" as="geometry">
            <mxPoint x="934.53" y="3019.8100000000004" as="sourcePoint" />
            <mxPoint x="934.53" y="3049.8100000000004" as="targetPoint" />
          </mxGeometry>
        </mxCell>
        <mxCell id="XtpnshZH6VqtbmfVQ0za-49" value="" style="rounded=0;whiteSpace=wrap;html=1;" parent="1" vertex="1">
          <mxGeometry x="864.9300000000001" y="2979.8100000000004" width="140" height="30" as="geometry" />
        </mxCell>
        <mxCell id="XtpnshZH6VqtbmfVQ0za-50" value="UtenteAutenticato" style="text;html=1;strokeColor=none;fillColor=none;align=center;verticalAlign=middle;whiteSpace=wrap;rounded=0;" parent="1" vertex="1">
          <mxGeometry x="904.9300000000001" y="2979.8100000000004" width="60" height="30" as="geometry" />
        </mxCell>
        <mxCell id="XtpnshZH6VqtbmfVQ0za-51" value="" style="endArrow=classic;html=1;rounded=0;" parent="1" edge="1">
          <mxGeometry width="50" height="50" relative="1" as="geometry">
            <mxPoint x="681.5" y="3082.75" as="sourcePoint" />
            <mxPoint x="914" y="3082" as="targetPoint" />
          </mxGeometry>
        </mxCell>
        <mxCell id="XtpnshZH6VqtbmfVQ0za-54" value="" style="rounded=0;whiteSpace=wrap;html=1;rotation=90;" parent="1" vertex="1">
          <mxGeometry x="1214.0000000000002" y="3147" width="201.87" height="10" as="geometry" />
        </mxCell>
        <mxCell id="XtpnshZH6VqtbmfVQ0za-55" value="" style="endArrow=none;dashed=1;html=1;dashPattern=1 3;strokeWidth=2;rounded=0;" parent="1" edge="1">
          <mxGeometry width="50" height="50" relative="1" as="geometry">
            <mxPoint x="1314.53" y="3019.8100000000004" as="sourcePoint" />
            <mxPoint x="1314.53" y="3049.8100000000004" as="targetPoint" />
          </mxGeometry>
        </mxCell>
        <mxCell id="XtpnshZH6VqtbmfVQ0za-57" value="" style="endArrow=classic;html=1;rounded=0;" parent="1" edge="1">
          <mxGeometry width="50" height="50" relative="1" as="geometry">
            <mxPoint x="954" y="3078.98" as="sourcePoint" />
            <mxPoint x="1294" y="3077" as="targetPoint" />
          </mxGeometry>
        </mxCell>
        <mxCell id="XtpnshZH6VqtbmfVQ0za-58" value="&lt;span style=&quot;background-color:#ffffff;padding:0px 0px 0px 2px;&quot;&gt;&lt;/span&gt;&lt;span style=&quot;background-color:#ffffff;padding:0px 0px 0px 2px;&quot;&gt;&lt;/span&gt;&lt;span style=&quot;background-color:#ffffff;padding:0px 0px 0px 2px;&quot;&gt;&lt;/span&gt;deletepartecipante(emailutente)" style="text;html=1;strokeColor=none;fillColor=none;align=center;verticalAlign=middle;whiteSpace=wrap;rounded=0;" parent="1" vertex="1">
          <mxGeometry x="942" y="3045" width="370" height="30" as="geometry" />
        </mxCell>
        <mxCell id="XtpnshZH6VqtbmfVQ0za-59" value="ListenerDisiscrizione" style="text;html=1;align=center;verticalAlign=middle;resizable=0;points=[];autosize=1;strokeColor=none;fillColor=none;" parent="1" vertex="1">
          <mxGeometry x="728" y="3045" width="130" height="30" as="geometry" />
        </mxCell>
        <mxCell id="KEncSxHg4aTPaV4kUg_g-1" value="Utente autenticato" style="shape=umlActor;verticalLabelPosition=bottom;verticalAlign=top;html=1;outlineConnect=0;" parent="1" vertex="1">
          <mxGeometry x="142.5" y="1401" width="27.5" height="59" as="geometry" />
        </mxCell>
        <mxCell id="KEncSxHg4aTPaV4kUg_g-2" value="" style="rounded=0;whiteSpace=wrap;html=1;rotation=90;" parent="1" vertex="1">
          <mxGeometry x="60" y="1583.5" width="195" height="10" as="geometry" />
        </mxCell>
        <mxCell id="KEncSxHg4aTPaV4kUg_g-3" value="Utente autenticato" style="shape=umlActor;verticalLabelPosition=bottom;verticalAlign=top;html=1;outlineConnect=0;" parent="1" vertex="1">
          <mxGeometry x="142.57" y="995" width="30" height="60" as="geometry" />
        </mxCell>
        <mxCell id="KEncSxHg4aTPaV4kUg_g-4" value="" style="rounded=0;whiteSpace=wrap;html=1;rotation=90;" parent="1" vertex="1">
          <mxGeometry x="61.31999999999999" y="1178.75" width="192.5" height="10" as="geometry" />
        </mxCell>
        <mxCell id="KEncSxHg4aTPaV4kUg_g-6" value="" style="rounded=0;whiteSpace=wrap;html=1;rotation=90;" parent="1" vertex="1">
          <mxGeometry x="883.0700000000002" y="1187.19" width="201.87" height="10" as="geometry" />
        </mxCell>
        <mxCell id="KEncSxHg4aTPaV4kUg_g-7" value="" style="endArrow=none;dashed=1;html=1;dashPattern=1 3;strokeWidth=2;rounded=0;" parent="1" edge="1">
          <mxGeometry width="50" height="50" relative="1" as="geometry">
            <mxPoint x="983.5999999999999" y="1060" as="sourcePoint" />
            <mxPoint x="983.5999999999999" y="1090" as="targetPoint" />
          </mxGeometry>
        </mxCell>
        <mxCell id="KEncSxHg4aTPaV4kUg_g-8" value="" style="rounded=0;whiteSpace=wrap;html=1;" parent="1" vertex="1">
          <mxGeometry x="914" y="1020" width="140" height="30" as="geometry" />
        </mxCell>
        <mxCell id="KEncSxHg4aTPaV4kUg_g-9" value="UtenteAutenticato" style="text;html=1;strokeColor=none;fillColor=none;align=center;verticalAlign=middle;whiteSpace=wrap;rounded=0;" parent="1" vertex="1">
          <mxGeometry x="954" y="1020" width="60" height="30" as="geometry" />
        </mxCell>
        <mxCell id="KEncSxHg4aTPaV4kUg_g-10" value="" style="rounded=0;whiteSpace=wrap;html=1;rotation=90;" parent="1" vertex="1">
          <mxGeometry x="1141.7500000000002" y="1187.19" width="201.87" height="10" as="geometry" />
        </mxCell>
        <mxCell id="KEncSxHg4aTPaV4kUg_g-11" value="" style="rounded=0;whiteSpace=wrap;html=1;" parent="1" vertex="1">
          <mxGeometry x="1180.19" y="1020" width="140" height="30" as="geometry" />
        </mxCell>
        <mxCell id="KEncSxHg4aTPaV4kUg_g-12" value="UtenteDAO" style="text;html=1;strokeColor=none;fillColor=none;align=center;verticalAlign=middle;whiteSpace=wrap;rounded=0;" parent="1" vertex="1">
          <mxGeometry x="1217.19" y="1020" width="60" height="30" as="geometry" />
        </mxCell>
        <mxCell id="KEncSxHg4aTPaV4kUg_g-13" value="" style="endArrow=none;dashed=1;html=1;dashPattern=1 3;strokeWidth=2;rounded=0;" parent="1" edge="1">
          <mxGeometry width="50" height="50" relative="1" as="geometry">
            <mxPoint x="1242.75" y="1086" as="sourcePoint" />
            <mxPoint x="1242.75" y="1056" as="targetPoint" />
          </mxGeometry>
        </mxCell>
        <mxCell id="KEncSxHg4aTPaV4kUg_g-14" value="&lt;span style=&quot;background-color:#ffffff;padding:0px 0px 0px 2px;&quot;&gt;&lt;/span&gt;&lt;span style=&quot;background-color:#ffffff;padding:0px 0px 0px 2px;&quot;&gt;updateSchemaUtente(UtenteAutenticato)&lt;/span&gt;&lt;span style=&quot;background-color:#ffffff;padding:0px 0px 0px 2px;&quot;&gt;&lt;/span&gt;" style="text;html=1;strokeColor=none;fillColor=none;align=center;verticalAlign=middle;whiteSpace=wrap;rounded=0;" parent="1" vertex="1">
          <mxGeometry x="1261" y="1090" width="208.75" height="30" as="geometry" />
        </mxCell>
        <mxCell id="KEncSxHg4aTPaV4kUg_g-15" value="" style="endArrow=classic;html=1;rounded=0;entryX=1;entryY=1;entryDx=0;entryDy=0;" parent="1" target="KEncSxHg4aTPaV4kUg_g-14" edge="1">
          <mxGeometry width="50" height="50" relative="1" as="geometry">
            <mxPoint x="1257.75" y="1120" as="sourcePoint" />
            <mxPoint x="1167.75" y="1120" as="targetPoint" />
          </mxGeometry>
        </mxCell>
        <mxCell id="KEncSxHg4aTPaV4kUg_g-16" value="" style="rounded=0;whiteSpace=wrap;html=1;" parent="1" vertex="1">
          <mxGeometry x="1418.69" y="1020" width="140" height="30" as="geometry" />
        </mxCell>
        <mxCell id="KEncSxHg4aTPaV4kUg_g-17" value="DataBase" style="text;html=1;strokeColor=none;fillColor=none;align=center;verticalAlign=middle;whiteSpace=wrap;rounded=0;" parent="1" vertex="1">
          <mxGeometry x="1458.69" y="1020" width="60" height="30" as="geometry" />
        </mxCell>
        <mxCell id="KEncSxHg4aTPaV4kUg_g-18" value="" style="rounded=0;whiteSpace=wrap;html=1;rotation=90;" parent="1" vertex="1">
          <mxGeometry x="1387.7500000000002" y="1193.75" width="201.87" height="10" as="geometry" />
        </mxCell>
        <mxCell id="KEncSxHg4aTPaV4kUg_g-19" value="" style="endArrow=none;dashed=1;html=1;dashPattern=1 3;strokeWidth=2;rounded=0;entryX=0.5;entryY=1;entryDx=0;entryDy=0;" parent="1" target="KEncSxHg4aTPaV4kUg_g-17" edge="1">
          <mxGeometry width="50" height="50" relative="1" as="geometry">
            <mxPoint x="1487.76" y="1085" as="sourcePoint" />
            <mxPoint x="1212.76" y="1071" as="targetPoint" />
          </mxGeometry>
        </mxCell>
        <mxCell id="KEncSxHg4aTPaV4kUg_g-20" value="cambiaUsername(newUsername)" style="text;whiteSpace=wrap;" parent="1" vertex="1">
          <mxGeometry x="1024.37" y="1088.88" width="170.7" height="40" as="geometry" />
        </mxCell>
        <mxCell id="KEncSxHg4aTPaV4kUg_g-21" value="" style="endArrow=classic;html=1;rounded=0;" parent="1" edge="1">
          <mxGeometry width="50" height="50" relative="1" as="geometry">
            <mxPoint x="1002.75" y="1119" as="sourcePoint" />
            <mxPoint x="1198.07" y="1119" as="targetPoint" />
          </mxGeometry>
        </mxCell>
        <mxCell id="KEncSxHg4aTPaV4kUg_g-22" value="" style="rounded=0;whiteSpace=wrap;html=1;rotation=90;" parent="1" vertex="1">
          <mxGeometry x="953.5000000000002" y="1589.19" width="201.87" height="10" as="geometry" />
        </mxCell>
        <mxCell id="KEncSxHg4aTPaV4kUg_g-23" value="" style="endArrow=none;dashed=1;html=1;dashPattern=1 3;strokeWidth=2;rounded=0;" parent="1" edge="1">
          <mxGeometry width="50" height="50" relative="1" as="geometry">
            <mxPoint x="1054.03" y="1462" as="sourcePoint" />
            <mxPoint x="1054.03" y="1492" as="targetPoint" />
          </mxGeometry>
        </mxCell>
        <mxCell id="KEncSxHg4aTPaV4kUg_g-24" value="" style="rounded=0;whiteSpace=wrap;html=1;" parent="1" vertex="1">
          <mxGeometry x="984.4300000000001" y="1422" width="140" height="30" as="geometry" />
        </mxCell>
        <mxCell id="KEncSxHg4aTPaV4kUg_g-25" value="UtenteAutenticato" style="text;html=1;strokeColor=none;fillColor=none;align=center;verticalAlign=middle;whiteSpace=wrap;rounded=0;" parent="1" vertex="1">
          <mxGeometry x="1024.43" y="1422" width="60" height="30" as="geometry" />
        </mxCell>
        <mxCell id="KEncSxHg4aTPaV4kUg_g-26" value="" style="rounded=0;whiteSpace=wrap;html=1;rotation=90;" parent="1" vertex="1">
          <mxGeometry x="1119.1800000000003" y="1589.19" width="201.87" height="10" as="geometry" />
        </mxCell>
        <mxCell id="KEncSxHg4aTPaV4kUg_g-27" value="" style="rounded=0;whiteSpace=wrap;html=1;" parent="1" vertex="1">
          <mxGeometry x="1157.6200000000001" y="1422" width="140" height="30" as="geometry" />
        </mxCell>
        <mxCell id="KEncSxHg4aTPaV4kUg_g-28" value="UtenteDAO" style="text;html=1;strokeColor=none;fillColor=none;align=center;verticalAlign=middle;whiteSpace=wrap;rounded=0;" parent="1" vertex="1">
          <mxGeometry x="1194.6200000000001" y="1422" width="60" height="30" as="geometry" />
        </mxCell>
        <mxCell id="KEncSxHg4aTPaV4kUg_g-29" value="" style="endArrow=none;dashed=1;html=1;dashPattern=1 3;strokeWidth=2;rounded=0;" parent="1" edge="1">
          <mxGeometry width="50" height="50" relative="1" as="geometry">
            <mxPoint x="1220.18" y="1488" as="sourcePoint" />
            <mxPoint x="1220.18" y="1458" as="targetPoint" />
          </mxGeometry>
        </mxCell>
        <mxCell id="KEncSxHg4aTPaV4kUg_g-30" value="eliminaSchemaUtente(UtenteAutenticato)" style="text;html=1;strokeColor=none;fillColor=none;align=center;verticalAlign=middle;whiteSpace=wrap;rounded=0;" parent="1" vertex="1">
          <mxGeometry x="1245.43" y="1492" width="208.75" height="30" as="geometry" />
        </mxCell>
        <mxCell id="KEncSxHg4aTPaV4kUg_g-31" value="" style="endArrow=classic;html=1;rounded=0;entryX=1;entryY=1;entryDx=0;entryDy=0;" parent="1" target="KEncSxHg4aTPaV4kUg_g-30" edge="1">
          <mxGeometry width="50" height="50" relative="1" as="geometry">
            <mxPoint x="1235.18" y="1522" as="sourcePoint" />
            <mxPoint x="1145.18" y="1522" as="targetPoint" />
          </mxGeometry>
        </mxCell>
        <mxCell id="KEncSxHg4aTPaV4kUg_g-32" value="" style="rounded=0;whiteSpace=wrap;html=1;" parent="1" vertex="1">
          <mxGeometry x="1406.1200000000001" y="1422" width="140" height="30" as="geometry" />
        </mxCell>
        <mxCell id="KEncSxHg4aTPaV4kUg_g-33" value="DataBase" style="text;html=1;strokeColor=none;fillColor=none;align=center;verticalAlign=middle;whiteSpace=wrap;rounded=0;" parent="1" vertex="1">
          <mxGeometry x="1446.1200000000001" y="1422" width="60" height="30" as="geometry" />
        </mxCell>
        <mxCell id="KEncSxHg4aTPaV4kUg_g-34" value="" style="rounded=0;whiteSpace=wrap;html=1;rotation=90;" parent="1" vertex="1">
          <mxGeometry x="1375.1800000000003" y="1595.75" width="201.87" height="10" as="geometry" />
        </mxCell>
        <mxCell id="KEncSxHg4aTPaV4kUg_g-35" value="" style="endArrow=none;dashed=1;html=1;dashPattern=1 3;strokeWidth=2;rounded=0;entryX=0.5;entryY=1;entryDx=0;entryDy=0;" parent="1" target="KEncSxHg4aTPaV4kUg_g-33" edge="1">
          <mxGeometry width="50" height="50" relative="1" as="geometry">
            <mxPoint x="1475.19" y="1487" as="sourcePoint" />
            <mxPoint x="1200.19" y="1473" as="targetPoint" />
          </mxGeometry>
        </mxCell>
        <mxCell id="KEncSxHg4aTPaV4kUg_g-36" value="eliminaAccount()" style="text;whiteSpace=wrap;" parent="1" vertex="1">
          <mxGeometry x="1100.16" y="1490" width="98.07" height="40" as="geometry" />
        </mxCell>
        <mxCell id="KEncSxHg4aTPaV4kUg_g-37" value="" style="endArrow=classic;html=1;rounded=0;" parent="1" edge="1">
          <mxGeometry width="50" height="50" relative="1" as="geometry">
            <mxPoint x="1088" y="1521" as="sourcePoint" />
            <mxPoint x="1207.6200000000001" y="1521" as="targetPoint" />
          </mxGeometry>
        </mxCell>
        <mxCell id="KEncSxHg4aTPaV4kUg_g-38" value="" style="endArrow=classic;html=1;rounded=0;" parent="1" edge="1">
          <mxGeometry width="50" height="50" relative="1" as="geometry">
            <mxPoint x="758" y="1522" as="sourcePoint" />
            <mxPoint x="1033.47" y="1522" as="targetPoint" />
          </mxGeometry>
        </mxCell>
        <mxCell id="KEncSxHg4aTPaV4kUg_g-39" value="verificaCredenziali(emailInput, passwordInput)&lt;br&gt;eliminaAccount()" style="text;html=1;align=center;verticalAlign=middle;resizable=0;points=[];autosize=1;strokeColor=none;fillColor=none;" parent="1" vertex="1">
          <mxGeometry x="769.8699999999999" y="1480" width="270" height="40" as="geometry" />
        </mxCell>
        <mxCell id="KEncSxHg4aTPaV4kUg_g-40" value="" style="endArrow=classic;html=1;rounded=0;" parent="1" edge="1">
          <mxGeometry width="50" height="50" relative="1" as="geometry">
            <mxPoint x="550.1299999999999" y="1122.88" as="sourcePoint" />
            <mxPoint x="691.9999999999998" y="1121.88" as="targetPoint" />
          </mxGeometry>
        </mxCell>
        <mxCell id="KEncSxHg4aTPaV4kUg_g-41" value="actionPerformed()" style="text;html=1;align=center;verticalAlign=middle;resizable=0;points=[];autosize=1;strokeColor=none;fillColor=none;" parent="1" vertex="1">
          <mxGeometry x="556.1299999999999" y="1086.88" width="120" height="30" as="geometry" />
        </mxCell>
        <mxCell id="KEncSxHg4aTPaV4kUg_g-42" value="&lt;h2&gt;Registrazione&lt;/h2&gt;" style="text;html=1;align=center;verticalAlign=middle;resizable=0;points=[];autosize=1;strokeColor=none;fillColor=none;" parent="1" vertex="1">
          <mxGeometry x="87.5" y="110" width="140" height="60" as="geometry" />
        </mxCell>
        <mxCell id="KEncSxHg4aTPaV4kUg_g-43" value="&lt;h2&gt;Autenticazione&lt;/h2&gt;" style="text;html=1;align=center;verticalAlign=middle;resizable=0;points=[];autosize=1;strokeColor=none;fillColor=none;" parent="1" vertex="1">
          <mxGeometry x="90" y="505" width="150" height="60" as="geometry" />
        </mxCell>
        <mxCell id="KEncSxHg4aTPaV4kUg_g-45" value="&lt;h2&gt;Modifica account&lt;/h2&gt;" style="text;html=1;align=center;verticalAlign=middle;resizable=0;points=[];autosize=1;strokeColor=none;fillColor=none;" parent="1" vertex="1">
          <mxGeometry x="80" y="920" width="170" height="60" as="geometry" />
        </mxCell>
        <mxCell id="KEncSxHg4aTPaV4kUg_g-46" value="&lt;h2&gt;Eliminazione account&lt;/h2&gt;" style="text;html=1;align=center;verticalAlign=middle;resizable=0;points=[];autosize=1;strokeColor=none;fillColor=none;" parent="1" vertex="1">
          <mxGeometry x="55" y="1333" width="210" height="60" as="geometry" />
        </mxCell>
        <mxCell id="KEncSxHg4aTPaV4kUg_g-47" value="&lt;h2&gt;Iscrizione torneo&lt;/h2&gt;" style="text;html=1;align=center;verticalAlign=middle;resizable=0;points=[];autosize=1;strokeColor=none;fillColor=none;" parent="1" vertex="1">
          <mxGeometry x="76.5" y="1739" width="170" height="60" as="geometry" />
        </mxCell>
        <mxCell id="KEncSxHg4aTPaV4kUg_g-48" value="&lt;h2&gt;Creazione torneo&lt;/h2&gt;" style="text;html=1;align=center;verticalAlign=middle;resizable=0;points=[];autosize=1;strokeColor=none;fillColor=none;" parent="1" vertex="1">
          <mxGeometry x="75" y="2130" width="170" height="60" as="geometry" />
        </mxCell>
        <mxCell id="KEncSxHg4aTPaV4kUg_g-49" value="&lt;h2&gt;Eliminazione torneo&lt;/h2&gt;" style="text;html=1;align=center;verticalAlign=middle;resizable=0;points=[];autosize=1;strokeColor=none;fillColor=none;" parent="1" vertex="1">
          <mxGeometry x="75" y="2518" width="190" height="60" as="geometry" />
        </mxCell>
        <mxCell id="KEncSxHg4aTPaV4kUg_g-50" value="&lt;h2&gt;Disiscrizione torneo&lt;/h2&gt;" style="text;html=1;align=center;verticalAlign=middle;resizable=0;points=[];autosize=1;strokeColor=none;fillColor=none;" parent="1" vertex="1">
          <mxGeometry x="70" y="2900" width="200" height="60" as="geometry" />
        </mxCell>
        <mxCell id="KEncSxHg4aTPaV4kUg_g-63" value="" style="rounded=0;whiteSpace=wrap;html=1;rotation=90;" parent="1" vertex="1">
          <mxGeometry x="500.17999999999995" y="1120" width="67.5" height="10" as="geometry" />
        </mxCell>
        <mxCell id="KEncSxHg4aTPaV4kUg_g-64" value="" style="endArrow=none;dashed=1;html=1;dashPattern=1 3;strokeWidth=2;rounded=0;" parent="1" edge="1">
          <mxGeometry width="50" height="50" relative="1" as="geometry">
            <mxPoint x="533.53" y="1060" as="sourcePoint" />
            <mxPoint x="533.53" y="1090" as="targetPoint" />
          </mxGeometry>
        </mxCell>
        <mxCell id="KEncSxHg4aTPaV4kUg_g-67" value="" style="rounded=0;whiteSpace=wrap;html=1;" parent="1" vertex="1">
          <mxGeometry x="463.93" y="1020" width="140" height="30" as="geometry" />
        </mxCell>
        <mxCell id="KEncSxHg4aTPaV4kUg_g-68" value="ModificaAccountController" style="text;html=1;strokeColor=none;fillColor=none;align=center;verticalAlign=middle;whiteSpace=wrap;rounded=0;" parent="1" vertex="1">
          <mxGeometry x="503.92999999999995" y="1020" width="60" height="30" as="geometry" />
        </mxCell>
        <mxCell id="KEncSxHg4aTPaV4kUg_g-73" value="" style="rounded=0;whiteSpace=wrap;html=1;rotation=90;" parent="1" vertex="1">
          <mxGeometry x="502.25" y="1522" width="67.5" height="10" as="geometry" />
        </mxCell>
        <mxCell id="KEncSxHg4aTPaV4kUg_g-74" value="" style="endArrow=none;dashed=1;html=1;dashPattern=1 3;strokeWidth=2;rounded=0;" parent="1" edge="1">
          <mxGeometry width="50" height="50" relative="1" as="geometry">
            <mxPoint x="535.5999999999999" y="1462" as="sourcePoint" />
            <mxPoint x="535.5999999999999" y="1492" as="targetPoint" />
          </mxGeometry>
        </mxCell>
        <mxCell id="KEncSxHg4aTPaV4kUg_g-77" value="" style="rounded=0;whiteSpace=wrap;html=1;" parent="1" vertex="1">
          <mxGeometry x="466" y="1422" width="140" height="30" as="geometry" />
        </mxCell>
        <mxCell id="KEncSxHg4aTPaV4kUg_g-78" value="EliminaAccountController" style="text;html=1;strokeColor=none;fillColor=none;align=center;verticalAlign=middle;whiteSpace=wrap;rounded=0;" parent="1" vertex="1">
          <mxGeometry x="506" y="1422" width="60" height="30" as="geometry" />
        </mxCell>
        <mxCell id="gb_MqxTgopEuYDQUJ0B2-1" value="1" style="text;html=1;align=center;verticalAlign=middle;whiteSpace=wrap;rounded=0;" parent="1" vertex="1">
          <mxGeometry x="1111.9299999999998" y="1425.5" width="10" height="10" as="geometry" />
        </mxCell>
        <mxCell id="gb_MqxTgopEuYDQUJ0B2-3" value="" style="endArrow=classic;html=1;rounded=0;" parent="1" edge="1">
          <mxGeometry width="50" height="50" relative="1" as="geometry">
            <mxPoint x="172.57" y="1529" as="sourcePoint" />
            <mxPoint x="320" y="1529" as="targetPoint" />
          </mxGeometry>
        </mxCell>
        <mxCell id="gb_MqxTgopEuYDQUJ0B2-5" value="1" style="text;html=1;align=center;verticalAlign=middle;whiteSpace=wrap;rounded=0;" parent="1" vertex="1">
          <mxGeometry x="1280.55" y="1426" width="10" height="10" as="geometry" />
        </mxCell>
        <mxCell id="gb_MqxTgopEuYDQUJ0B2-6" value="1" style="text;html=1;align=center;verticalAlign=middle;whiteSpace=wrap;rounded=0;" parent="1" vertex="1">
          <mxGeometry x="1305" y="1026" width="10" height="10" as="geometry" />
        </mxCell>
        <mxCell id="gb_MqxTgopEuYDQUJ0B2-7" value="1" style="text;html=1;align=center;verticalAlign=middle;whiteSpace=wrap;rounded=0;" parent="1" vertex="1">
          <mxGeometry x="1042" y="1023" width="10" height="10" as="geometry" />
        </mxCell>
        <mxCell id="L5I8SlYzrirsqVw1CCDF-2" value="" style="rounded=0;whiteSpace=wrap;html=1;rotation=90;" parent="1" vertex="1">
          <mxGeometry x="636.7500000000002" y="1589.19" width="201.87" height="10" as="geometry" />
        </mxCell>
        <mxCell id="L5I8SlYzrirsqVw1CCDF-3" value="" style="endArrow=none;dashed=1;html=1;dashPattern=1 3;strokeWidth=2;rounded=0;" parent="1" edge="1">
          <mxGeometry width="50" height="50" relative="1" as="geometry">
            <mxPoint x="737.28" y="1462" as="sourcePoint" />
            <mxPoint x="737.28" y="1492" as="targetPoint" />
          </mxGeometry>
        </mxCell>
        <mxCell id="L5I8SlYzrirsqVw1CCDF-4" value="" style="rounded=0;whiteSpace=wrap;html=1;" parent="1" vertex="1">
          <mxGeometry x="667.6800000000001" y="1422" width="140" height="30" as="geometry" />
        </mxCell>
        <mxCell id="L5I8SlYzrirsqVw1CCDF-5" value="GestioneAccountModel" style="text;html=1;strokeColor=none;fillColor=none;align=center;verticalAlign=middle;whiteSpace=wrap;rounded=0;" parent="1" vertex="1">
          <mxGeometry x="707.6800000000001" y="1422" width="60" height="30" as="geometry" />
        </mxCell>
        <mxCell id="L5I8SlYzrirsqVw1CCDF-8" value="" style="rounded=0;whiteSpace=wrap;html=1;rotation=90;" parent="1" vertex="1">
          <mxGeometry x="606.7500000000002" y="1186.75" width="201.87" height="10" as="geometry" />
        </mxCell>
        <mxCell id="L5I8SlYzrirsqVw1CCDF-9" value="" style="endArrow=none;dashed=1;html=1;dashPattern=1 3;strokeWidth=2;rounded=0;" parent="1" edge="1">
          <mxGeometry width="50" height="50" relative="1" as="geometry">
            <mxPoint x="707.28" y="1059.56" as="sourcePoint" />
            <mxPoint x="707.28" y="1089.56" as="targetPoint" />
          </mxGeometry>
        </mxCell>
        <mxCell id="L5I8SlYzrirsqVw1CCDF-10" value="" style="rounded=0;whiteSpace=wrap;html=1;" parent="1" vertex="1">
          <mxGeometry x="637.6800000000001" y="1019.56" width="140" height="30" as="geometry" />
        </mxCell>
        <mxCell id="L5I8SlYzrirsqVw1CCDF-11" value="GestioneAccountModel" style="text;html=1;strokeColor=none;fillColor=none;align=center;verticalAlign=middle;whiteSpace=wrap;rounded=0;" parent="1" vertex="1">
          <mxGeometry x="677.6800000000001" y="1019.56" width="60" height="30" as="geometry" />
        </mxCell>
        <mxCell id="L5I8SlYzrirsqVw1CCDF-14" value="" style="rounded=0;whiteSpace=wrap;html=1;" parent="1" vertex="1">
          <mxGeometry x="887.8600000000001" y="1610" width="103.75" height="30" as="geometry" />
        </mxCell>
        <mxCell id="L5I8SlYzrirsqVw1CCDF-15" value="BigFrame" style="text;html=1;strokeColor=none;fillColor=none;align=center;verticalAlign=middle;whiteSpace=wrap;rounded=0;" parent="1" vertex="1">
          <mxGeometry x="910.74" y="1610" width="60" height="30" as="geometry" />
        </mxCell>
        <mxCell id="L5I8SlYzrirsqVw1CCDF-23" value="" style="endArrow=classic;html=1;rounded=0;" parent="1" edge="1">
          <mxGeometry width="50" height="50" relative="1" as="geometry">
            <mxPoint x="758" y="1623" as="sourcePoint" />
            <mxPoint x="878" y="1623" as="targetPoint" />
          </mxGeometry>
        </mxCell>
        <mxCell id="L5I8SlYzrirsqVw1CCDF-26" value="istanziaBigFrame()" style="text;html=1;align=center;verticalAlign=middle;resizable=0;points=[];autosize=1;strokeColor=none;fillColor=none;" parent="1" vertex="1">
          <mxGeometry x="757.6799999999998" y="1593.5" width="120" height="30" as="geometry" />
        </mxCell>
        <mxCell id="L5I8SlYzrirsqVw1CCDF-27" value="" style="rounded=0;whiteSpace=wrap;html=1;rotation=90;" parent="1" vertex="1">
          <mxGeometry x="246.24000000000024" y="1589.19" width="201.87" height="10" as="geometry" />
        </mxCell>
        <mxCell id="L5I8SlYzrirsqVw1CCDF-28" value="" style="endArrow=none;dashed=1;html=1;dashPattern=1 3;strokeWidth=2;rounded=0;" parent="1" edge="1">
          <mxGeometry width="50" height="50" relative="1" as="geometry">
            <mxPoint x="346.77" y="1462" as="sourcePoint" />
            <mxPoint x="346.77" y="1492" as="targetPoint" />
          </mxGeometry>
        </mxCell>
        <mxCell id="L5I8SlYzrirsqVw1CCDF-29" value="" style="rounded=0;whiteSpace=wrap;html=1;" parent="1" vertex="1">
          <mxGeometry x="277.1700000000001" y="1422" width="140" height="30" as="geometry" />
        </mxCell>
        <mxCell id="L5I8SlYzrirsqVw1CCDF-30" value="EliminaAccountView" style="text;html=1;strokeColor=none;fillColor=none;align=center;verticalAlign=middle;whiteSpace=wrap;rounded=0;" parent="1" vertex="1">
          <mxGeometry x="317.1700000000001" y="1422" width="60" height="30" as="geometry" />
        </mxCell>
        <mxCell id="ST3RacROsklgZeBQulR1-2" value="1" style="text;html=1;align=center;verticalAlign=middle;whiteSpace=wrap;rounded=0;" parent="1" vertex="1">
          <mxGeometry x="1098.19" y="195" width="10" height="10" as="geometry" />
        </mxCell>
        <mxCell id="ST3RacROsklgZeBQulR1-3" value="1" style="text;html=1;align=center;verticalAlign=middle;whiteSpace=wrap;rounded=0;" parent="1" vertex="1">
          <mxGeometry x="1330.93" y="195" width="10" height="10" as="geometry" />
        </mxCell>
        <mxCell id="ST3RacROsklgZeBQulR1-4" value="" style="rounded=0;whiteSpace=wrap;html=1;rotation=90;" parent="1" vertex="1">
          <mxGeometry x="1033.44" y="752.19" width="201.87" height="10" as="geometry" />
        </mxCell>
        <mxCell id="ST3RacROsklgZeBQulR1-5" value="" style="endArrow=none;dashed=1;html=1;dashPattern=1 3;strokeWidth=2;rounded=0;" parent="1" edge="1">
          <mxGeometry width="50" height="50" relative="1" as="geometry">
            <mxPoint x="1133.9699999999998" y="625" as="sourcePoint" />
            <mxPoint x="1133.9699999999998" y="655" as="targetPoint" />
          </mxGeometry>
        </mxCell>
        <mxCell id="ST3RacROsklgZeBQulR1-6" value="" style="rounded=0;whiteSpace=wrap;html=1;" parent="1" vertex="1">
          <mxGeometry x="1064.37" y="585" width="140" height="30" as="geometry" />
        </mxCell>
        <mxCell id="ST3RacROsklgZeBQulR1-7" value="UtenteAutenticato" style="text;html=1;strokeColor=none;fillColor=none;align=center;verticalAlign=middle;whiteSpace=wrap;rounded=0;" parent="1" vertex="1">
          <mxGeometry x="1104.37" y="585" width="60" height="30" as="geometry" />
        </mxCell>
        <mxCell id="ST3RacROsklgZeBQulR1-8" value="1" style="text;html=1;align=center;verticalAlign=middle;whiteSpace=wrap;rounded=0;" parent="1" vertex="1">
          <mxGeometry x="1192.37" y="588" width="10" height="10" as="geometry" />
        </mxCell>
        <mxCell id="ST3RacROsklgZeBQulR1-9" value="" style="endArrow=classic;html=1;rounded=0;" parent="1" edge="1">
          <mxGeometry width="50" height="50" relative="1" as="geometry">
            <mxPoint x="859.87" y="684.05" as="sourcePoint" />
            <mxPoint x="1120" y="684" as="targetPoint" />
          </mxGeometry>
        </mxCell>
        <mxCell id="ST3RacROsklgZeBQulR1-11" value="verificaCredenziali(username, password)" style="text;html=1;align=center;verticalAlign=middle;resizable=0;points=[];autosize=1;strokeColor=none;fillColor=none;" parent="1" vertex="1">
          <mxGeometry x="868" y="646" width="240" height="30" as="geometry" />
        </mxCell>
        <mxCell id="ST3RacROsklgZeBQulR1-12" value="" style="rounded=0;whiteSpace=wrap;html=1;" parent="1" vertex="1">
          <mxGeometry x="990.1800000000003" y="764" width="103.75" height="30" as="geometry" />
        </mxCell>
        <mxCell id="ST3RacROsklgZeBQulR1-13" value="Index" style="text;html=1;strokeColor=none;fillColor=none;align=center;verticalAlign=middle;whiteSpace=wrap;rounded=0;" parent="1" vertex="1">
          <mxGeometry x="1012.0600000000002" y="764" width="60" height="30" as="geometry" />
        </mxCell>
        <mxCell id="ST3RacROsklgZeBQulR1-14" value="" style="endArrow=classic;html=1;rounded=0;" parent="1" edge="1">
          <mxGeometry width="50" height="50" relative="1" as="geometry">
            <mxPoint x="863.3200000000002" y="777" as="sourcePoint" />
            <mxPoint x="983.3200000000002" y="777" as="targetPoint" />
          </mxGeometry>
        </mxCell>
        <mxCell id="ST3RacROsklgZeBQulR1-15" value="istanziaIndex()" style="text;html=1;align=center;verticalAlign=middle;resizable=0;points=[];autosize=1;strokeColor=none;fillColor=none;" parent="1" vertex="1">
          <mxGeometry x="870" y="746" width="100" height="30" as="geometry" />
        </mxCell>
        <mxCell id="ST3RacROsklgZeBQulR1-17" value="1" style="text;html=1;align=center;verticalAlign=middle;whiteSpace=wrap;rounded=0;" parent="1" vertex="1">
          <mxGeometry x="1149" y="1823" width="10" height="10" as="geometry" />
        </mxCell>
        <mxCell id="ST3RacROsklgZeBQulR1-18" value="1" style="text;html=1;align=center;verticalAlign=middle;whiteSpace=wrap;rounded=0;" parent="1" vertex="1">
          <mxGeometry x="900.93" y="1823" width="10" height="10" as="geometry" />
        </mxCell>
        <mxCell id="ST3RacROsklgZeBQulR1-19" value="1" style="text;html=1;align=center;verticalAlign=middle;whiteSpace=wrap;rounded=0;" parent="1" vertex="1">
          <mxGeometry x="990.18" y="2211.4" width="10" height="10" as="geometry" />
        </mxCell>
        <mxCell id="ST3RacROsklgZeBQulR1-20" value="1" style="text;html=1;align=center;verticalAlign=middle;whiteSpace=wrap;rounded=0;" parent="1" vertex="1">
          <mxGeometry x="991.6800000000001" y="2594.4" width="10" height="10" as="geometry" />
        </mxCell>
        <mxCell id="ST3RacROsklgZeBQulR1-21" value="1" style="text;html=1;align=center;verticalAlign=middle;whiteSpace=wrap;rounded=0;" parent="1" vertex="1">
          <mxGeometry x="990.9300000000001" y="2983.4" width="10" height="10" as="geometry" />
        </mxCell>
        <mxCell id="ST3RacROsklgZeBQulR1-22" value="" style="rounded=0;whiteSpace=wrap;html=1;" parent="1" vertex="1">
          <mxGeometry x="1250" y="2982" width="140" height="30" as="geometry" />
        </mxCell>
        <mxCell id="ST3RacROsklgZeBQulR1-23" value="DataBase" style="text;html=1;strokeColor=none;fillColor=none;align=center;verticalAlign=middle;whiteSpace=wrap;rounded=0;" parent="1" vertex="1">
          <mxGeometry x="1290" y="2982" width="60" height="30" as="geometry" />
        </mxCell>
        <mxCell id="ST3RacROsklgZeBQulR1-28" value="" style="rounded=0;whiteSpace=wrap;html=1;rotation=90;" parent="1" vertex="1">
          <mxGeometry x="236.50000000000017" y="1186.47" width="201.87" height="10" as="geometry" />
        </mxCell>
        <mxCell id="ST3RacROsklgZeBQulR1-29" value="" style="endArrow=none;dashed=1;html=1;dashPattern=1 3;strokeWidth=2;rounded=0;" parent="1" edge="1">
          <mxGeometry width="50" height="50" relative="1" as="geometry">
            <mxPoint x="337.0299999999999" y="1059.28" as="sourcePoint" />
            <mxPoint x="337.0299999999999" y="1089.28" as="targetPoint" />
          </mxGeometry>
        </mxCell>
        <mxCell id="ST3RacROsklgZeBQulR1-30" value="" style="rounded=0;whiteSpace=wrap;html=1;" parent="1" vertex="1">
          <mxGeometry x="267.43" y="1019.28" width="140" height="30" as="geometry" />
        </mxCell>
        <mxCell id="ST3RacROsklgZeBQulR1-31" value="EliminaAccountView" style="text;html=1;strokeColor=none;fillColor=none;align=center;verticalAlign=middle;whiteSpace=wrap;rounded=0;" parent="1" vertex="1">
          <mxGeometry x="307.43" y="1019.28" width="60" height="30" as="geometry" />
        </mxCell>
        <mxCell id="ST3RacROsklgZeBQulR1-33" value="verificaCredenziali(emailInput, passwordInput)&lt;br&gt;modificaAccount()" style="text;html=1;align=center;verticalAlign=middle;resizable=0;points=[];autosize=1;strokeColor=none;fillColor=none;" parent="1" vertex="1">
          <mxGeometry x="708.8799999999999" y="1087" width="270" height="40" as="geometry" />
        </mxCell>
        <mxCell id="ST3RacROsklgZeBQulR1-34" value="" style="endArrow=classic;html=1;rounded=0;" parent="1" edge="1">
          <mxGeometry width="50" height="50" relative="1" as="geometry">
            <mxPoint x="731.1800000000001" y="1131" as="sourcePoint" />
            <mxPoint x="940" y="1130" as="targetPoint" />
          </mxGeometry>
        </mxCell>
        <mxCell id="ST3RacROsklgZeBQulR1-35" value="" style="endArrow=classic;html=1;rounded=0;" parent="1" edge="1">
          <mxGeometry width="50" height="50" relative="1" as="geometry">
            <mxPoint x="567.68" y="1524.83" as="sourcePoint" />
            <mxPoint x="709.5499999999998" y="1523.83" as="targetPoint" />
          </mxGeometry>
        </mxCell>
        <mxCell id="ST3RacROsklgZeBQulR1-36" value="actionPerformed()" style="text;html=1;align=center;verticalAlign=middle;resizable=0;points=[];autosize=1;strokeColor=none;fillColor=none;" parent="1" vertex="1">
          <mxGeometry x="573.68" y="1488.83" width="120" height="30" as="geometry" />
        </mxCell>
        <mxCell id="ST3RacROsklgZeBQulR1-38" value="" style="endArrow=classic;html=1;rounded=0;entryX=1.034;entryY=1.102;entryDx=0;entryDy=0;entryPerimeter=0;" parent="1" target="ST3RacROsklgZeBQulR1-39" edge="1">
          <mxGeometry width="50" height="50" relative="1" as="geometry">
            <mxPoint x="170" y="1125.21" as="sourcePoint" />
            <mxPoint x="332.5" y="1125.21" as="targetPoint" />
          </mxGeometry>
        </mxCell>
        <mxCell id="ST3RacROsklgZeBQulR1-39" value="EliminaAccountView()" style="text;html=1;align=center;verticalAlign=middle;resizable=0;points=[];autosize=1;strokeColor=none;fillColor=none;" parent="1" vertex="1">
          <mxGeometry x="174" y="1091.21" width="140" height="30" as="geometry" />
        </mxCell>
        <mxCell id="ST3RacROsklgZeBQulR1-40" value="ModificaAccountView()" style="text;html=1;align=center;verticalAlign=middle;resizable=0;points=[];autosize=1;strokeColor=none;fillColor=none;" parent="1" vertex="1">
          <mxGeometry x="172.17000000000002" y="1492" width="150" height="30" as="geometry" />
        </mxCell>
        <mxCell id="ST3RacROsklgZeBQulR1-41" value="" style="endArrow=classic;html=1;rounded=0;" parent="1" edge="1">
          <mxGeometry width="50" height="50" relative="1" as="geometry">
            <mxPoint x="356.5" y="1121.21" as="sourcePoint" />
            <mxPoint x="503.93000000000006" y="1121.21" as="targetPoint" />
          </mxGeometry>
        </mxCell>
        <mxCell id="ST3RacROsklgZeBQulR1-42" value="" style="endArrow=classic;html=1;rounded=0;" parent="1" edge="1">
          <mxGeometry width="50" height="50" relative="1" as="geometry">
            <mxPoint x="362.5" y="1530.67" as="sourcePoint" />
            <mxPoint x="509.93000000000006" y="1530.67" as="targetPoint" />
          </mxGeometry>
        </mxCell>
        <mxCell id="ST3RacROsklgZeBQulR1-43" value="ActionListener" style="text;html=1;align=center;verticalAlign=middle;resizable=0;points=[];autosize=1;strokeColor=none;fillColor=none;" parent="1" vertex="1">
          <mxGeometry x="388.38" y="1492" width="100" height="30" as="geometry" />
        </mxCell>
        <mxCell id="ST3RacROsklgZeBQulR1-44" value="ActionListener" style="text;html=1;align=center;verticalAlign=middle;resizable=0;points=[];autosize=1;" parent="1" vertex="1">
          <mxGeometry x="387" y="1088" width="100" height="30" as="geometry" />
        </mxCell>
        <mxCell id="PyGu5tj_1or0yoG0-wjz-1" value="Utente autenticato" style="shape=umlActor;verticalLabelPosition=bottom;verticalAlign=top;html=1;outlineConnect=0;" parent="1" vertex="1">
          <mxGeometry x="151.25" y="3395" width="30" height="60" as="geometry" />
        </mxCell>
        <mxCell id="PyGu5tj_1or0yoG0-wjz-2" value="" style="rounded=0;whiteSpace=wrap;html=1;rotation=90;" parent="1" vertex="1">
          <mxGeometry x="70" y="3578.75" width="192.5" height="10" as="geometry" />
        </mxCell>
        <mxCell id="PyGu5tj_1or0yoG0-wjz-3" value="" style="rounded=0;whiteSpace=wrap;html=1;rotation=90;" parent="1" vertex="1">
          <mxGeometry x="891.7500000000002" y="3587.19" width="201.87" height="10" as="geometry" />
        </mxCell>
        <mxCell id="PyGu5tj_1or0yoG0-wjz-4" value="" style="endArrow=none;dashed=1;html=1;dashPattern=1 3;strokeWidth=2;rounded=0;" parent="1" edge="1">
          <mxGeometry width="50" height="50" relative="1" as="geometry">
            <mxPoint x="992.28" y="3460" as="sourcePoint" />
            <mxPoint x="992.28" y="3490" as="targetPoint" />
          </mxGeometry>
        </mxCell>
        <mxCell id="PyGu5tj_1or0yoG0-wjz-5" value="" style="rounded=0;whiteSpace=wrap;html=1;" parent="1" vertex="1">
          <mxGeometry x="922.6800000000001" y="3420" width="140" height="30" as="geometry" />
        </mxCell>
        <mxCell id="PyGu5tj_1or0yoG0-wjz-6" value="UtenteAutenticato" style="text;html=1;strokeColor=none;fillColor=none;align=center;verticalAlign=middle;whiteSpace=wrap;rounded=0;" parent="1" vertex="1">
          <mxGeometry x="962.6800000000001" y="3420" width="60" height="30" as="geometry" />
        </mxCell>
        <mxCell id="PyGu5tj_1or0yoG0-wjz-7" value="" style="rounded=0;whiteSpace=wrap;html=1;rotation=90;" parent="1" vertex="1">
          <mxGeometry x="1150.4300000000003" y="3587.19" width="201.87" height="10" as="geometry" />
        </mxCell>
        <mxCell id="PyGu5tj_1or0yoG0-wjz-8" value="" style="rounded=0;whiteSpace=wrap;html=1;" parent="1" vertex="1">
          <mxGeometry x="1188.8700000000001" y="3420" width="140" height="30" as="geometry" />
        </mxCell>
        <mxCell id="PyGu5tj_1or0yoG0-wjz-9" value="UtenteDAO" style="text;html=1;strokeColor=none;fillColor=none;align=center;verticalAlign=middle;whiteSpace=wrap;rounded=0;" parent="1" vertex="1">
          <mxGeometry x="1225.8700000000001" y="3420" width="60" height="30" as="geometry" />
        </mxCell>
        <mxCell id="PyGu5tj_1or0yoG0-wjz-10" value="" style="endArrow=none;dashed=1;html=1;dashPattern=1 3;strokeWidth=2;rounded=0;" parent="1" edge="1">
          <mxGeometry width="50" height="50" relative="1" as="geometry">
            <mxPoint x="1251.43" y="3486" as="sourcePoint" />
            <mxPoint x="1251.43" y="3456" as="targetPoint" />
          </mxGeometry>
        </mxCell>
        <mxCell id="PyGu5tj_1or0yoG0-wjz-11" value="&lt;span style=&quot;background-color:#ffffff;padding:0px 0px 0px 2px;&quot;&gt;&lt;/span&gt;&lt;span style=&quot;background-color:#ffffff;padding:0px 0px 0px 2px;&quot;&gt;insertPreferiti(String gioco)&lt;/span&gt;&lt;span style=&quot;background-color:#ffffff;padding:0px 0px 0px 2px;&quot;&gt;&lt;/span&gt;" style="text;html=1;strokeColor=none;fillColor=none;align=center;verticalAlign=middle;whiteSpace=wrap;rounded=0;" parent="1" vertex="1">
          <mxGeometry x="1269.68" y="3490" width="208.75" height="30" as="geometry" />
        </mxCell>
        <mxCell id="PyGu5tj_1or0yoG0-wjz-12" value="" style="endArrow=classic;html=1;rounded=0;entryX=1;entryY=1;entryDx=0;entryDy=0;" parent="1" target="PyGu5tj_1or0yoG0-wjz-11" edge="1">
          <mxGeometry width="50" height="50" relative="1" as="geometry">
            <mxPoint x="1266.43" y="3520" as="sourcePoint" />
            <mxPoint x="1176.43" y="3520" as="targetPoint" />
          </mxGeometry>
        </mxCell>
        <mxCell id="PyGu5tj_1or0yoG0-wjz-13" value="" style="rounded=0;whiteSpace=wrap;html=1;" parent="1" vertex="1">
          <mxGeometry x="1427.3700000000001" y="3420" width="140" height="30" as="geometry" />
        </mxCell>
        <mxCell id="PyGu5tj_1or0yoG0-wjz-14" value="DataBase" style="text;html=1;strokeColor=none;fillColor=none;align=center;verticalAlign=middle;whiteSpace=wrap;rounded=0;" parent="1" vertex="1">
          <mxGeometry x="1467.3700000000001" y="3420" width="60" height="30" as="geometry" />
        </mxCell>
        <mxCell id="PyGu5tj_1or0yoG0-wjz-15" value="" style="rounded=0;whiteSpace=wrap;html=1;rotation=90;" parent="1" vertex="1">
          <mxGeometry x="1396.4300000000003" y="3593.75" width="201.87" height="10" as="geometry" />
        </mxCell>
        <mxCell id="PyGu5tj_1or0yoG0-wjz-16" value="" style="endArrow=none;dashed=1;html=1;dashPattern=1 3;strokeWidth=2;rounded=0;entryX=0.5;entryY=1;entryDx=0;entryDy=0;" parent="1" target="PyGu5tj_1or0yoG0-wjz-14" edge="1">
          <mxGeometry width="50" height="50" relative="1" as="geometry">
            <mxPoint x="1496.44" y="3485" as="sourcePoint" />
            <mxPoint x="1221.44" y="3471" as="targetPoint" />
          </mxGeometry>
        </mxCell>
        <mxCell id="PyGu5tj_1or0yoG0-wjz-17" value="insertPreferiti(GiochiEnum gioco)" style="text;whiteSpace=wrap;" parent="1" vertex="1">
          <mxGeometry x="1027.05" y="3488.88" width="186.95" height="40" as="geometry" />
        </mxCell>
        <mxCell id="PyGu5tj_1or0yoG0-wjz-18" value="" style="endArrow=classic;html=1;rounded=0;" parent="1" edge="1">
          <mxGeometry width="50" height="50" relative="1" as="geometry">
            <mxPoint x="1011.4300000000001" y="3519" as="sourcePoint" />
            <mxPoint x="1206.75" y="3519" as="targetPoint" />
          </mxGeometry>
        </mxCell>
        <mxCell id="PyGu5tj_1or0yoG0-wjz-19" value="" style="endArrow=classic;html=1;rounded=0;" parent="1" edge="1">
          <mxGeometry width="50" height="50" relative="1" as="geometry">
            <mxPoint x="558.81" y="3522.88" as="sourcePoint" />
            <mxPoint x="700.6799999999998" y="3521.88" as="targetPoint" />
          </mxGeometry>
        </mxCell>
        <mxCell id="PyGu5tj_1or0yoG0-wjz-20" value="mouseClicked()" style="text;html=1;align=center;verticalAlign=middle;resizable=0;points=[];autosize=1;strokeColor=none;fillColor=none;" parent="1" vertex="1">
          <mxGeometry x="569.81" y="3486.88" width="110" height="30" as="geometry" />
        </mxCell>
        <mxCell id="PyGu5tj_1or0yoG0-wjz-21" value="&lt;h2&gt;Aggiungi preferito&lt;/h2&gt;" style="text;html=1;align=center;verticalAlign=middle;resizable=0;points=[];autosize=1;strokeColor=none;fillColor=none;" parent="1" vertex="1">
          <mxGeometry x="83.68" y="3320" width="180" height="60" as="geometry" />
        </mxCell>
        <mxCell id="PyGu5tj_1or0yoG0-wjz-22" value="" style="rounded=0;whiteSpace=wrap;html=1;rotation=90;" parent="1" vertex="1">
          <mxGeometry x="508.85999999999996" y="3520" width="67.5" height="10" as="geometry" />
        </mxCell>
        <mxCell id="PyGu5tj_1or0yoG0-wjz-23" value="" style="endArrow=none;dashed=1;html=1;dashPattern=1 3;strokeWidth=2;rounded=0;" parent="1" edge="1">
          <mxGeometry width="50" height="50" relative="1" as="geometry">
            <mxPoint x="542.21" y="3460" as="sourcePoint" />
            <mxPoint x="542.21" y="3490" as="targetPoint" />
          </mxGeometry>
        </mxCell>
        <mxCell id="PyGu5tj_1or0yoG0-wjz-24" value="" style="rounded=0;whiteSpace=wrap;html=1;" parent="1" vertex="1">
          <mxGeometry x="472.61000000000007" y="3420" width="140" height="30" as="geometry" />
        </mxCell>
        <mxCell id="PyGu5tj_1or0yoG0-wjz-25" value="MouseController" style="text;html=1;strokeColor=none;fillColor=none;align=center;verticalAlign=middle;whiteSpace=wrap;rounded=0;" parent="1" vertex="1">
          <mxGeometry x="512.6099999999999" y="3420" width="60" height="30" as="geometry" />
        </mxCell>
        <mxCell id="PyGu5tj_1or0yoG0-wjz-26" value="1" style="text;html=1;align=center;verticalAlign=middle;whiteSpace=wrap;rounded=0;" parent="1" vertex="1">
          <mxGeometry x="1313.68" y="3426" width="10" height="10" as="geometry" />
        </mxCell>
        <mxCell id="PyGu5tj_1or0yoG0-wjz-27" value="1" style="text;html=1;align=center;verticalAlign=middle;whiteSpace=wrap;rounded=0;" parent="1" vertex="1">
          <mxGeometry x="1050.68" y="3423" width="10" height="10" as="geometry" />
        </mxCell>
        <mxCell id="PyGu5tj_1or0yoG0-wjz-28" value="" style="rounded=0;whiteSpace=wrap;html=1;rotation=90;" parent="1" vertex="1">
          <mxGeometry x="615.4300000000003" y="3586.75" width="201.87" height="10" as="geometry" />
        </mxCell>
        <mxCell id="PyGu5tj_1or0yoG0-wjz-29" value="" style="endArrow=none;dashed=1;html=1;dashPattern=1 3;strokeWidth=2;rounded=0;" parent="1" edge="1">
          <mxGeometry width="50" height="50" relative="1" as="geometry">
            <mxPoint x="715.96" y="3459.56" as="sourcePoint" />
            <mxPoint x="715.96" y="3489.56" as="targetPoint" />
          </mxGeometry>
        </mxCell>
        <mxCell id="PyGu5tj_1or0yoG0-wjz-30" value="" style="rounded=0;whiteSpace=wrap;html=1;" parent="1" vertex="1">
          <mxGeometry x="646.3600000000001" y="3419.56" width="140" height="30" as="geometry" />
        </mxCell>
        <mxCell id="PyGu5tj_1or0yoG0-wjz-31" value="IndexModel" style="text;html=1;strokeColor=none;fillColor=none;align=center;verticalAlign=middle;whiteSpace=wrap;rounded=0;" parent="1" vertex="1">
          <mxGeometry x="686.3600000000001" y="3419.56" width="60" height="30" as="geometry" />
        </mxCell>
        <mxCell id="PyGu5tj_1or0yoG0-wjz-32" value="" style="rounded=0;whiteSpace=wrap;html=1;rotation=90;" parent="1" vertex="1">
          <mxGeometry x="245.18000000000018" y="3586.4700000000003" width="201.87" height="10" as="geometry" />
        </mxCell>
        <mxCell id="PyGu5tj_1or0yoG0-wjz-33" value="" style="endArrow=none;dashed=1;html=1;dashPattern=1 3;strokeWidth=2;rounded=0;" parent="1" edge="1">
          <mxGeometry width="50" height="50" relative="1" as="geometry">
            <mxPoint x="345.71" y="3459.2799999999997" as="sourcePoint" />
            <mxPoint x="345.71" y="3489.2799999999997" as="targetPoint" />
          </mxGeometry>
        </mxCell>
        <mxCell id="PyGu5tj_1or0yoG0-wjz-34" value="" style="rounded=0;whiteSpace=wrap;html=1;" parent="1" vertex="1">
          <mxGeometry x="276.11" y="3419.2799999999997" width="140" height="30" as="geometry" />
        </mxCell>
        <mxCell id="PyGu5tj_1or0yoG0-wjz-35" value="IndexView" style="text;html=1;strokeColor=none;fillColor=none;align=center;verticalAlign=middle;whiteSpace=wrap;rounded=0;" parent="1" vertex="1">
          <mxGeometry x="316.11000000000007" y="3419.2799999999997" width="60" height="30" as="geometry" />
        </mxCell>
        <mxCell id="PyGu5tj_1or0yoG0-wjz-36" value="insertPreferiti(GiochiEnum gioco)" style="text;html=1;align=center;verticalAlign=middle;resizable=0;points=[];autosize=1;strokeColor=none;fillColor=none;" parent="1" vertex="1">
          <mxGeometry x="752.56" y="3492" width="200" height="30" as="geometry" />
        </mxCell>
        <mxCell id="PyGu5tj_1or0yoG0-wjz-37" value="" style="endArrow=classic;html=1;rounded=0;" parent="1" edge="1">
          <mxGeometry width="50" height="50" relative="1" as="geometry">
            <mxPoint x="739.8600000000001" y="3531" as="sourcePoint" />
            <mxPoint x="948.6800000000001" y="3530" as="targetPoint" />
          </mxGeometry>
        </mxCell>
        <mxCell id="PyGu5tj_1or0yoG0-wjz-38" value="" style="endArrow=classic;html=1;rounded=0;entryX=1.034;entryY=1.102;entryDx=0;entryDy=0;entryPerimeter=0;" parent="1" edge="1">
          <mxGeometry width="50" height="50" relative="1" as="geometry">
            <mxPoint x="178.68" y="3525.21" as="sourcePoint" />
            <mxPoint x="327.44000000000005" y="3524.2699999999995" as="targetPoint" />
          </mxGeometry>
        </mxCell>
        <mxCell id="PyGu5tj_1or0yoG0-wjz-40" value="" style="endArrow=classic;html=1;rounded=0;" parent="1" edge="1">
          <mxGeometry width="50" height="50" relative="1" as="geometry">
            <mxPoint x="365.18" y="3521.21" as="sourcePoint" />
            <mxPoint x="512.6100000000001" y="3521.21" as="targetPoint" />
          </mxGeometry>
        </mxCell>
        <mxCell id="PyGu5tj_1or0yoG0-wjz-41" value="MouseListener" style="text;html=1;align=center;verticalAlign=middle;resizable=0;points=[];autosize=1;" parent="1" vertex="1">
          <mxGeometry x="395.68" y="3488" width="100" height="30" as="geometry" />
        </mxCell>
        <mxCell id="PyGu5tj_1or0yoG0-wjz-42" value="Utente autenticato" style="shape=umlActor;verticalLabelPosition=bottom;verticalAlign=top;html=1;outlineConnect=0;" parent="1" vertex="1">
          <mxGeometry x="142.57" y="3845" width="30" height="60" as="geometry" />
        </mxCell>
        <mxCell id="PyGu5tj_1or0yoG0-wjz-43" value="" style="rounded=0;whiteSpace=wrap;html=1;rotation=90;" parent="1" vertex="1">
          <mxGeometry x="61.32" y="4028.75" width="192.5" height="10" as="geometry" />
        </mxCell>
        <mxCell id="PyGu5tj_1or0yoG0-wjz-44" value="" style="rounded=0;whiteSpace=wrap;html=1;rotation=90;" parent="1" vertex="1">
          <mxGeometry x="883.0700000000003" y="4037.1900000000005" width="201.87" height="10" as="geometry" />
        </mxCell>
        <mxCell id="PyGu5tj_1or0yoG0-wjz-45" value="" style="endArrow=none;dashed=1;html=1;dashPattern=1 3;strokeWidth=2;rounded=0;" parent="1" edge="1">
          <mxGeometry width="50" height="50" relative="1" as="geometry">
            <mxPoint x="983.6" y="3910" as="sourcePoint" />
            <mxPoint x="983.6" y="3940" as="targetPoint" />
          </mxGeometry>
        </mxCell>
        <mxCell id="PyGu5tj_1or0yoG0-wjz-46" value="" style="rounded=0;whiteSpace=wrap;html=1;" parent="1" vertex="1">
          <mxGeometry x="914.0000000000001" y="3870" width="140" height="30" as="geometry" />
        </mxCell>
        <mxCell id="PyGu5tj_1or0yoG0-wjz-47" value="UtenteAutenticato" style="text;html=1;strokeColor=none;fillColor=none;align=center;verticalAlign=middle;whiteSpace=wrap;rounded=0;" parent="1" vertex="1">
          <mxGeometry x="954.0000000000001" y="3870" width="60" height="30" as="geometry" />
        </mxCell>
        <mxCell id="PyGu5tj_1or0yoG0-wjz-48" value="" style="rounded=0;whiteSpace=wrap;html=1;rotation=90;" parent="1" vertex="1">
          <mxGeometry x="1141.7500000000002" y="4037.1900000000005" width="201.87" height="10" as="geometry" />
        </mxCell>
        <mxCell id="PyGu5tj_1or0yoG0-wjz-49" value="" style="rounded=0;whiteSpace=wrap;html=1;" parent="1" vertex="1">
          <mxGeometry x="1180.19" y="3870" width="140" height="30" as="geometry" />
        </mxCell>
        <mxCell id="PyGu5tj_1or0yoG0-wjz-50" value="UtenteDAO" style="text;html=1;strokeColor=none;fillColor=none;align=center;verticalAlign=middle;whiteSpace=wrap;rounded=0;" parent="1" vertex="1">
          <mxGeometry x="1217.19" y="3870" width="60" height="30" as="geometry" />
        </mxCell>
        <mxCell id="PyGu5tj_1or0yoG0-wjz-51" value="" style="endArrow=none;dashed=1;html=1;dashPattern=1 3;strokeWidth=2;rounded=0;" parent="1" edge="1">
          <mxGeometry width="50" height="50" relative="1" as="geometry">
            <mxPoint x="1242.75" y="3936" as="sourcePoint" />
            <mxPoint x="1242.75" y="3906" as="targetPoint" />
          </mxGeometry>
        </mxCell>
        <mxCell id="PyGu5tj_1or0yoG0-wjz-52" value="&lt;span style=&quot;background-color:#ffffff;padding:0px 0px 0px 2px;&quot;&gt;&lt;/span&gt;&lt;span style=&quot;background-color:#ffffff;padding:0px 0px 0px 2px;&quot;&gt;deletePreferiti(String gioco)&lt;/span&gt;&lt;span style=&quot;background-color:#ffffff;padding:0px 0px 0px 2px;&quot;&gt;&lt;/span&gt;" style="text;html=1;strokeColor=none;fillColor=none;align=center;verticalAlign=middle;whiteSpace=wrap;rounded=0;" parent="1" vertex="1">
          <mxGeometry x="1261" y="3940" width="208.75" height="30" as="geometry" />
        </mxCell>
        <mxCell id="PyGu5tj_1or0yoG0-wjz-53" value="" style="endArrow=classic;html=1;rounded=0;entryX=1;entryY=1;entryDx=0;entryDy=0;" parent="1" target="PyGu5tj_1or0yoG0-wjz-52" edge="1">
          <mxGeometry width="50" height="50" relative="1" as="geometry">
            <mxPoint x="1257.75" y="3970" as="sourcePoint" />
            <mxPoint x="1167.75" y="3970" as="targetPoint" />
          </mxGeometry>
        </mxCell>
        <mxCell id="PyGu5tj_1or0yoG0-wjz-54" value="" style="rounded=0;whiteSpace=wrap;html=1;" parent="1" vertex="1">
          <mxGeometry x="1418.69" y="3870" width="140" height="30" as="geometry" />
        </mxCell>
        <mxCell id="PyGu5tj_1or0yoG0-wjz-55" value="DataBase" style="text;html=1;strokeColor=none;fillColor=none;align=center;verticalAlign=middle;whiteSpace=wrap;rounded=0;" parent="1" vertex="1">
          <mxGeometry x="1458.69" y="3870" width="60" height="30" as="geometry" />
        </mxCell>
        <mxCell id="PyGu5tj_1or0yoG0-wjz-56" value="" style="rounded=0;whiteSpace=wrap;html=1;rotation=90;" parent="1" vertex="1">
          <mxGeometry x="1387.7500000000002" y="4043.75" width="201.87" height="10" as="geometry" />
        </mxCell>
        <mxCell id="PyGu5tj_1or0yoG0-wjz-57" value="" style="endArrow=none;dashed=1;html=1;dashPattern=1 3;strokeWidth=2;rounded=0;entryX=0.5;entryY=1;entryDx=0;entryDy=0;" parent="1" target="PyGu5tj_1or0yoG0-wjz-55" edge="1">
          <mxGeometry width="50" height="50" relative="1" as="geometry">
            <mxPoint x="1487.76" y="3935" as="sourcePoint" />
            <mxPoint x="1212.76" y="3921" as="targetPoint" />
          </mxGeometry>
        </mxCell>
        <mxCell id="PyGu5tj_1or0yoG0-wjz-58" value="deletePreferiti(GiochiEnum gioco)" style="text;whiteSpace=wrap;" parent="1" vertex="1">
          <mxGeometry x="1024.37" y="3938.88" width="185.63" height="40" as="geometry" />
        </mxCell>
        <mxCell id="PyGu5tj_1or0yoG0-wjz-59" value="" style="endArrow=classic;html=1;rounded=0;" parent="1" edge="1">
          <mxGeometry width="50" height="50" relative="1" as="geometry">
            <mxPoint x="1002.7500000000001" y="3969" as="sourcePoint" />
            <mxPoint x="1198.07" y="3969" as="targetPoint" />
          </mxGeometry>
        </mxCell>
        <mxCell id="PyGu5tj_1or0yoG0-wjz-60" value="" style="endArrow=classic;html=1;rounded=0;" parent="1" edge="1">
          <mxGeometry width="50" height="50" relative="1" as="geometry">
            <mxPoint x="550.13" y="3972.88" as="sourcePoint" />
            <mxPoint x="691.9999999999999" y="3971.88" as="targetPoint" />
          </mxGeometry>
        </mxCell>
        <mxCell id="PyGu5tj_1or0yoG0-wjz-61" value="mouseClicked()" style="text;html=1;align=center;verticalAlign=middle;resizable=0;points=[];autosize=1;strokeColor=none;fillColor=none;" parent="1" vertex="1">
          <mxGeometry x="561.13" y="3936.88" width="110" height="30" as="geometry" />
        </mxCell>
        <mxCell id="PyGu5tj_1or0yoG0-wjz-62" value="&lt;h2&gt;Rimuovi preferito&lt;/h2&gt;" style="text;html=1;align=center;verticalAlign=middle;resizable=0;points=[];autosize=1;strokeColor=none;fillColor=none;" parent="1" vertex="1">
          <mxGeometry x="80" y="3770" width="170" height="60" as="geometry" />
        </mxCell>
        <mxCell id="PyGu5tj_1or0yoG0-wjz-63" value="" style="rounded=0;whiteSpace=wrap;html=1;rotation=90;" parent="1" vertex="1">
          <mxGeometry x="500.1799999999999" y="3970" width="67.5" height="10" as="geometry" />
        </mxCell>
        <mxCell id="PyGu5tj_1or0yoG0-wjz-64" value="" style="endArrow=none;dashed=1;html=1;dashPattern=1 3;strokeWidth=2;rounded=0;" parent="1" edge="1">
          <mxGeometry width="50" height="50" relative="1" as="geometry">
            <mxPoint x="533.5300000000001" y="3910" as="sourcePoint" />
            <mxPoint x="533.5300000000001" y="3940" as="targetPoint" />
          </mxGeometry>
        </mxCell>
        <mxCell id="PyGu5tj_1or0yoG0-wjz-65" value="" style="rounded=0;whiteSpace=wrap;html=1;" parent="1" vertex="1">
          <mxGeometry x="463.93000000000006" y="3870" width="140" height="30" as="geometry" />
        </mxCell>
        <mxCell id="PyGu5tj_1or0yoG0-wjz-66" value="MouseController" style="text;html=1;strokeColor=none;fillColor=none;align=center;verticalAlign=middle;whiteSpace=wrap;rounded=0;" parent="1" vertex="1">
          <mxGeometry x="503.9299999999999" y="3870" width="60" height="30" as="geometry" />
        </mxCell>
        <mxCell id="PyGu5tj_1or0yoG0-wjz-67" value="1" style="text;html=1;align=center;verticalAlign=middle;whiteSpace=wrap;rounded=0;" parent="1" vertex="1">
          <mxGeometry x="1305" y="3876" width="10" height="10" as="geometry" />
        </mxCell>
        <mxCell id="PyGu5tj_1or0yoG0-wjz-68" value="1" style="text;html=1;align=center;verticalAlign=middle;whiteSpace=wrap;rounded=0;" parent="1" vertex="1">
          <mxGeometry x="1042" y="3873" width="10" height="10" as="geometry" />
        </mxCell>
        <mxCell id="PyGu5tj_1or0yoG0-wjz-69" value="" style="rounded=0;whiteSpace=wrap;html=1;rotation=90;" parent="1" vertex="1">
          <mxGeometry x="606.7500000000003" y="4036.75" width="201.87" height="10" as="geometry" />
        </mxCell>
        <mxCell id="PyGu5tj_1or0yoG0-wjz-70" value="" style="endArrow=none;dashed=1;html=1;dashPattern=1 3;strokeWidth=2;rounded=0;" parent="1" edge="1">
          <mxGeometry width="50" height="50" relative="1" as="geometry">
            <mxPoint x="707.2800000000001" y="3909.56" as="sourcePoint" />
            <mxPoint x="707.2800000000001" y="3939.56" as="targetPoint" />
          </mxGeometry>
        </mxCell>
        <mxCell id="PyGu5tj_1or0yoG0-wjz-71" value="" style="rounded=0;whiteSpace=wrap;html=1;" parent="1" vertex="1">
          <mxGeometry x="637.6800000000002" y="3869.56" width="140" height="30" as="geometry" />
        </mxCell>
        <mxCell id="PyGu5tj_1or0yoG0-wjz-72" value="IndexModel" style="text;html=1;strokeColor=none;fillColor=none;align=center;verticalAlign=middle;whiteSpace=wrap;rounded=0;" parent="1" vertex="1">
          <mxGeometry x="677.6800000000002" y="3869.56" width="60" height="30" as="geometry" />
        </mxCell>
        <mxCell id="PyGu5tj_1or0yoG0-wjz-73" value="" style="rounded=0;whiteSpace=wrap;html=1;rotation=90;" parent="1" vertex="1">
          <mxGeometry x="236.50000000000017" y="4036.4700000000003" width="201.87" height="10" as="geometry" />
        </mxCell>
        <mxCell id="PyGu5tj_1or0yoG0-wjz-74" value="" style="endArrow=none;dashed=1;html=1;dashPattern=1 3;strokeWidth=2;rounded=0;" parent="1" edge="1">
          <mxGeometry width="50" height="50" relative="1" as="geometry">
            <mxPoint x="337.03" y="3909.2799999999997" as="sourcePoint" />
            <mxPoint x="337.03" y="3939.2799999999997" as="targetPoint" />
          </mxGeometry>
        </mxCell>
        <mxCell id="PyGu5tj_1or0yoG0-wjz-75" value="" style="rounded=0;whiteSpace=wrap;html=1;" parent="1" vertex="1">
          <mxGeometry x="267.43" y="3869.2799999999997" width="140" height="30" as="geometry" />
        </mxCell>
        <mxCell id="PyGu5tj_1or0yoG0-wjz-76" value="IndexView" style="text;html=1;strokeColor=none;fillColor=none;align=center;verticalAlign=middle;whiteSpace=wrap;rounded=0;" parent="1" vertex="1">
          <mxGeometry x="307.43" y="3869.2799999999997" width="60" height="30" as="geometry" />
        </mxCell>
        <mxCell id="PyGu5tj_1or0yoG0-wjz-77" value="insertPreferiti(GiochiEnum gioco)" style="text;html=1;align=center;verticalAlign=middle;resizable=0;points=[];autosize=1;strokeColor=none;fillColor=none;" parent="1" vertex="1">
          <mxGeometry x="743.88" y="3942" width="200" height="30" as="geometry" />
        </mxCell>
        <mxCell id="PyGu5tj_1or0yoG0-wjz-78" value="" style="endArrow=classic;html=1;rounded=0;" parent="1" edge="1">
          <mxGeometry width="50" height="50" relative="1" as="geometry">
            <mxPoint x="731.1800000000002" y="3981" as="sourcePoint" />
            <mxPoint x="940.0000000000001" y="3980" as="targetPoint" />
          </mxGeometry>
        </mxCell>
        <mxCell id="PyGu5tj_1or0yoG0-wjz-79" value="" style="endArrow=classic;html=1;rounded=0;entryX=1.034;entryY=1.102;entryDx=0;entryDy=0;entryPerimeter=0;" parent="1" edge="1">
          <mxGeometry width="50" height="50" relative="1" as="geometry">
            <mxPoint x="170" y="3975.21" as="sourcePoint" />
            <mxPoint x="318.76" y="3974.2699999999995" as="targetPoint" />
          </mxGeometry>
        </mxCell>
        <mxCell id="PyGu5tj_1or0yoG0-wjz-81" value="" style="endArrow=classic;html=1;rounded=0;" parent="1" edge="1">
          <mxGeometry width="50" height="50" relative="1" as="geometry">
            <mxPoint x="356.5" y="3971.21" as="sourcePoint" />
            <mxPoint x="503.9300000000001" y="3971.21" as="targetPoint" />
          </mxGeometry>
        </mxCell>
        <mxCell id="PyGu5tj_1or0yoG0-wjz-82" value="MouseListener" style="text;html=1;align=center;verticalAlign=middle;resizable=0;points=[];autosize=1;" parent="1" vertex="1">
          <mxGeometry x="387" y="3938" width="100" height="30" as="geometry" />
        </mxCell>
        <mxCell id="Y7lzuitGO0QH4Od33xvR-29" value="Utente autenticato" style="shape=umlActor;verticalLabelPosition=bottom;verticalAlign=top;html=1;outlineConnect=0;" vertex="1" parent="1">
          <mxGeometry x="127.05999999999999" y="4290" width="30" height="60" as="geometry" />
        </mxCell>
        <mxCell id="Y7lzuitGO0QH4Od33xvR-30" value="" style="rounded=0;whiteSpace=wrap;html=1;rotation=90;" vertex="1" parent="1">
          <mxGeometry x="44.55999999999999" y="4472.5" width="195" height="10" as="geometry" />
        </mxCell>
        <mxCell id="Y7lzuitGO0QH4Od33xvR-31" value="" style="rounded=0;whiteSpace=wrap;html=1;rotation=90;" vertex="1" parent="1">
          <mxGeometry x="304.34" y="4462.72" width="172.94" height="10" as="geometry" />
        </mxCell>
        <mxCell id="Y7lzuitGO0QH4Od33xvR-32" value="" style="endArrow=classic;html=1;rounded=0;" edge="1" parent="1">
          <mxGeometry width="50" height="50" relative="1" as="geometry">
            <mxPoint x="157.06" y="4410" as="sourcePoint" />
            <mxPoint x="377.06" y="4410" as="targetPoint" />
          </mxGeometry>
        </mxCell>
        <mxCell id="Y7lzuitGO0QH4Od33xvR-33" value="classificaTorneo(String Torneo)" style="text;html=1;align=center;verticalAlign=middle;resizable=0;points=[];autosize=1;strokeColor=none;fillColor=none;" vertex="1" parent="1">
          <mxGeometry x="169.56" y="4380" width="190" height="30" as="geometry" />
        </mxCell>
        <mxCell id="Y7lzuitGO0QH4Od33xvR-34" value="" style="endArrow=none;dashed=1;html=1;dashPattern=1 3;strokeWidth=2;rounded=0;" edge="1" parent="1">
          <mxGeometry width="50" height="50" relative="1" as="geometry">
            <mxPoint x="390.41" y="4350" as="sourcePoint" />
            <mxPoint x="390.41" y="4380" as="targetPoint" />
          </mxGeometry>
        </mxCell>
        <mxCell id="Y7lzuitGO0QH4Od33xvR-35" value="" style="rounded=0;whiteSpace=wrap;html=1;rotation=90;" vertex="1" parent="1">
          <mxGeometry x="608.3100000000001" y="4406.4" width="67.5" height="10" as="geometry" />
        </mxCell>
        <mxCell id="Y7lzuitGO0QH4Od33xvR-36" value="" style="endArrow=none;dashed=1;html=1;dashPattern=1 3;strokeWidth=2;rounded=0;" edge="1" parent="1">
          <mxGeometry width="50" height="50" relative="1" as="geometry">
            <mxPoint x="641.6600000000001" y="4346.4" as="sourcePoint" />
            <mxPoint x="641.6600000000001" y="4376.4" as="targetPoint" />
          </mxGeometry>
        </mxCell>
        <mxCell id="Y7lzuitGO0QH4Od33xvR-37" value="" style="rounded=0;whiteSpace=wrap;html=1;" vertex="1" parent="1">
          <mxGeometry x="340" y="4310" width="120" height="30" as="geometry" />
        </mxCell>
        <mxCell id="Y7lzuitGO0QH4Od33xvR-38" value="PartecipaTorneoView" style="text;html=1;strokeColor=none;fillColor=none;align=center;verticalAlign=middle;whiteSpace=wrap;rounded=0;" vertex="1" parent="1">
          <mxGeometry x="368.94" y="4310" width="60" height="30" as="geometry" />
        </mxCell>
        <mxCell id="Y7lzuitGO0QH4Od33xvR-39" value="" style="rounded=0;whiteSpace=wrap;html=1;" vertex="1" parent="1">
          <mxGeometry x="570" y="4306.4" width="150" height="30" as="geometry" />
        </mxCell>
        <mxCell id="Y7lzuitGO0QH4Od33xvR-40" value="PartecipaTorneoController" style="text;html=1;strokeColor=none;fillColor=none;align=center;verticalAlign=middle;whiteSpace=wrap;rounded=0;" vertex="1" parent="1">
          <mxGeometry x="612.0600000000001" y="4306.4" width="60" height="30" as="geometry" />
        </mxCell>
        <mxCell id="Y7lzuitGO0QH4Od33xvR-41" value="" style="endArrow=classic;html=1;rounded=0;" edge="1" parent="1">
          <mxGeometry width="50" height="50" relative="1" as="geometry">
            <mxPoint x="404.56" y="4409.33" as="sourcePoint" />
            <mxPoint x="624.5600000000001" y="4409.33" as="targetPoint" />
          </mxGeometry>
        </mxCell>
        <mxCell id="Y7lzuitGO0QH4Od33xvR-42" value="PartecipaTorneoController()" style="text;html=1;align=center;verticalAlign=middle;resizable=0;points=[];autosize=1;strokeColor=none;fillColor=none;" vertex="1" parent="1">
          <mxGeometry x="432.06" y="4380" width="170" height="30" as="geometry" />
        </mxCell>
        <mxCell id="Y7lzuitGO0QH4Od33xvR-43" value="" style="rounded=0;whiteSpace=wrap;html=1;rotation=90;" vertex="1" parent="1">
          <mxGeometry x="847.78" y="4436.79" width="135.44" height="10" as="geometry" />
        </mxCell>
        <mxCell id="Y7lzuitGO0QH4Od33xvR-44" value="" style="endArrow=none;dashed=1;html=1;dashPattern=1 3;strokeWidth=2;rounded=0;" edge="1" parent="1">
          <mxGeometry width="50" height="50" relative="1" as="geometry">
            <mxPoint x="915.09" y="4342.81" as="sourcePoint" />
            <mxPoint x="915.09" y="4372.81" as="targetPoint" />
          </mxGeometry>
        </mxCell>
        <mxCell id="Y7lzuitGO0QH4Od33xvR-45" value="" style="rounded=0;whiteSpace=wrap;html=1;" vertex="1" parent="1">
          <mxGeometry x="845.4900000000001" y="4302.81" width="140" height="30" as="geometry" />
        </mxCell>
        <mxCell id="Y7lzuitGO0QH4Od33xvR-46" value="UtenteAutenticato" style="text;html=1;strokeColor=none;fillColor=none;align=center;verticalAlign=middle;whiteSpace=wrap;rounded=0;" vertex="1" parent="1">
          <mxGeometry x="885.4900000000001" y="4302.81" width="60" height="30" as="geometry" />
        </mxCell>
        <mxCell id="Y7lzuitGO0QH4Od33xvR-47" value="" style="endArrow=classic;html=1;rounded=0;" edge="1" parent="1">
          <mxGeometry width="50" height="50" relative="1" as="geometry">
            <mxPoint x="662.0600000000001" y="4405.75" as="sourcePoint" />
            <mxPoint x="894.5600000000001" y="4405" as="targetPoint" />
          </mxGeometry>
        </mxCell>
        <mxCell id="Y7lzuitGO0QH4Od33xvR-52" value="" style="endArrow=classic;html=1;rounded=0;entryX=0.123;entryY=1.98;entryDx=0;entryDy=0;entryPerimeter=0;" edge="1" parent="1" target="Y7lzuitGO0QH4Od33xvR-98">
          <mxGeometry width="50" height="50" relative="1" as="geometry">
            <mxPoint x="934.5600000000001" y="4401.98" as="sourcePoint" />
            <mxPoint x="1274.56" y="4400" as="targetPoint" />
          </mxGeometry>
        </mxCell>
        <mxCell id="Y7lzuitGO0QH4Od33xvR-53" value="&lt;span style=&quot;text-wrap: nowrap;&quot;&gt;classificaTorneo(String Torneo)&lt;/span&gt;" style="text;html=1;strokeColor=none;fillColor=none;align=center;verticalAlign=middle;whiteSpace=wrap;rounded=0;" vertex="1" parent="1">
          <mxGeometry x="922.5600000000001" y="4368" width="370" height="30" as="geometry" />
        </mxCell>
        <mxCell id="Y7lzuitGO0QH4Od33xvR-54" value="partecipatorneo" style="text;html=1;align=center;verticalAlign=middle;resizable=0;points=[];autosize=1;strokeColor=none;fillColor=none;" vertex="1" parent="1">
          <mxGeometry x="718.5600000000001" y="4368" width="110" height="30" as="geometry" />
        </mxCell>
        <mxCell id="Y7lzuitGO0QH4Od33xvR-55" value="&lt;h2&gt;Classifica torneo&lt;/h2&gt;" style="text;html=1;align=center;verticalAlign=middle;resizable=0;points=[];autosize=1;strokeColor=none;fillColor=none;" vertex="1" parent="1">
          <mxGeometry x="65.55999999999999" y="4230" width="170" height="60" as="geometry" />
        </mxCell>
        <mxCell id="Y7lzuitGO0QH4Od33xvR-56" value="1" style="text;html=1;align=center;verticalAlign=middle;whiteSpace=wrap;rounded=0;" vertex="1" parent="1">
          <mxGeometry x="972.24" y="4306.4" width="10" height="10" as="geometry" />
        </mxCell>
        <mxCell id="Y7lzuitGO0QH4Od33xvR-57" value="Utente autenticato" style="shape=umlActor;verticalLabelPosition=bottom;verticalAlign=top;html=1;outlineConnect=0;" vertex="1" parent="1">
          <mxGeometry x="127.06" y="4700" width="30" height="60" as="geometry" />
        </mxCell>
        <mxCell id="Y7lzuitGO0QH4Od33xvR-58" value="" style="rounded=0;whiteSpace=wrap;html=1;rotation=90;" vertex="1" parent="1">
          <mxGeometry x="44.55999999999999" y="4882.5" width="195" height="10" as="geometry" />
        </mxCell>
        <mxCell id="Y7lzuitGO0QH4Od33xvR-59" value="" style="rounded=0;whiteSpace=wrap;html=1;rotation=90;" vertex="1" parent="1">
          <mxGeometry x="299.34" y="4877.72" width="182.94" height="10" as="geometry" />
        </mxCell>
        <mxCell id="Y7lzuitGO0QH4Od33xvR-60" value="" style="endArrow=classic;html=1;rounded=0;" edge="1" parent="1">
          <mxGeometry width="50" height="50" relative="1" as="geometry">
            <mxPoint x="157.06" y="4820" as="sourcePoint" />
            <mxPoint x="377.06" y="4820" as="targetPoint" />
          </mxGeometry>
        </mxCell>
        <mxCell id="Y7lzuitGO0QH4Od33xvR-61" value="partecipaTorneo(String Torneo)" style="text;html=1;align=center;verticalAlign=middle;resizable=0;points=[];autosize=1;strokeColor=none;fillColor=none;" vertex="1" parent="1">
          <mxGeometry x="169.56" y="4790" width="190" height="30" as="geometry" />
        </mxCell>
        <mxCell id="Y7lzuitGO0QH4Od33xvR-62" value="" style="endArrow=none;dashed=1;html=1;dashPattern=1 3;strokeWidth=2;rounded=0;" edge="1" parent="1">
          <mxGeometry width="50" height="50" relative="1" as="geometry">
            <mxPoint x="390.41" y="4760" as="sourcePoint" />
            <mxPoint x="390.41" y="4790" as="targetPoint" />
          </mxGeometry>
        </mxCell>
        <mxCell id="Y7lzuitGO0QH4Od33xvR-63" value="" style="rounded=0;whiteSpace=wrap;html=1;rotation=90;" vertex="1" parent="1">
          <mxGeometry x="608.3100000000001" y="4816.4" width="67.5" height="10" as="geometry" />
        </mxCell>
        <mxCell id="Y7lzuitGO0QH4Od33xvR-64" value="" style="endArrow=none;dashed=1;html=1;dashPattern=1 3;strokeWidth=2;rounded=0;" edge="1" parent="1">
          <mxGeometry width="50" height="50" relative="1" as="geometry">
            <mxPoint x="641.6600000000001" y="4756.4" as="sourcePoint" />
            <mxPoint x="641.6600000000001" y="4786.4" as="targetPoint" />
          </mxGeometry>
        </mxCell>
        <mxCell id="Y7lzuitGO0QH4Od33xvR-65" value="" style="rounded=0;whiteSpace=wrap;html=1;" vertex="1" parent="1">
          <mxGeometry x="340" y="4720" width="120" height="30" as="geometry" />
        </mxCell>
        <mxCell id="Y7lzuitGO0QH4Od33xvR-66" value="PartecipaTorneoView" style="text;html=1;strokeColor=none;fillColor=none;align=center;verticalAlign=middle;whiteSpace=wrap;rounded=0;" vertex="1" parent="1">
          <mxGeometry x="368.94" y="4720" width="60" height="30" as="geometry" />
        </mxCell>
        <mxCell id="Y7lzuitGO0QH4Od33xvR-67" value="" style="rounded=0;whiteSpace=wrap;html=1;" vertex="1" parent="1">
          <mxGeometry x="570" y="4716.4" width="150" height="30" as="geometry" />
        </mxCell>
        <mxCell id="Y7lzuitGO0QH4Od33xvR-68" value="PartecipaTorneoController" style="text;html=1;strokeColor=none;fillColor=none;align=center;verticalAlign=middle;whiteSpace=wrap;rounded=0;" vertex="1" parent="1">
          <mxGeometry x="612.0600000000001" y="4716.4" width="60" height="30" as="geometry" />
        </mxCell>
        <mxCell id="Y7lzuitGO0QH4Od33xvR-69" value="" style="endArrow=classic;html=1;rounded=0;" edge="1" parent="1">
          <mxGeometry width="50" height="50" relative="1" as="geometry">
            <mxPoint x="404.56" y="4819.33" as="sourcePoint" />
            <mxPoint x="624.5600000000001" y="4819.33" as="targetPoint" />
          </mxGeometry>
        </mxCell>
        <mxCell id="Y7lzuitGO0QH4Od33xvR-70" value="PartecipaTorneoController()" style="text;html=1;align=center;verticalAlign=middle;resizable=0;points=[];autosize=1;strokeColor=none;fillColor=none;" vertex="1" parent="1">
          <mxGeometry x="432.06" y="4790" width="170" height="30" as="geometry" />
        </mxCell>
        <mxCell id="Y7lzuitGO0QH4Od33xvR-71" value="" style="rounded=0;whiteSpace=wrap;html=1;rotation=90;" vertex="1" parent="1">
          <mxGeometry x="832.78" y="4861.79" width="165.44" height="10" as="geometry" />
        </mxCell>
        <mxCell id="Y7lzuitGO0QH4Od33xvR-72" value="" style="endArrow=none;dashed=1;html=1;dashPattern=1 3;strokeWidth=2;rounded=0;" edge="1" parent="1">
          <mxGeometry width="50" height="50" relative="1" as="geometry">
            <mxPoint x="915.09" y="4752.81" as="sourcePoint" />
            <mxPoint x="915.09" y="4782.81" as="targetPoint" />
          </mxGeometry>
        </mxCell>
        <mxCell id="Y7lzuitGO0QH4Od33xvR-73" value="" style="rounded=0;whiteSpace=wrap;html=1;" vertex="1" parent="1">
          <mxGeometry x="845.4900000000001" y="4712.81" width="140" height="30" as="geometry" />
        </mxCell>
        <mxCell id="Y7lzuitGO0QH4Od33xvR-74" value="UtenteAutenticato" style="text;html=1;strokeColor=none;fillColor=none;align=center;verticalAlign=middle;whiteSpace=wrap;rounded=0;" vertex="1" parent="1">
          <mxGeometry x="885.4900000000001" y="4712.81" width="60" height="30" as="geometry" />
        </mxCell>
        <mxCell id="Y7lzuitGO0QH4Od33xvR-75" value="" style="endArrow=classic;html=1;rounded=0;" edge="1" parent="1">
          <mxGeometry width="50" height="50" relative="1" as="geometry">
            <mxPoint x="662.0600000000001" y="4815.75" as="sourcePoint" />
            <mxPoint x="894.5600000000001" y="4815" as="targetPoint" />
          </mxGeometry>
        </mxCell>
        <mxCell id="Y7lzuitGO0QH4Od33xvR-76" value="" style="rounded=0;whiteSpace=wrap;html=1;rotation=90;" vertex="1" parent="1">
          <mxGeometry x="1409.6700000000003" y="4882.5" width="201.87" height="10" as="geometry" />
        </mxCell>
        <mxCell id="Y7lzuitGO0QH4Od33xvR-77" value="" style="endArrow=none;dashed=1;html=1;dashPattern=1 3;strokeWidth=2;rounded=0;" edge="1" parent="1">
          <mxGeometry width="50" height="50" relative="1" as="geometry">
            <mxPoint x="1510.21" y="4752.81" as="sourcePoint" />
            <mxPoint x="1510.21" y="4782.81" as="targetPoint" />
          </mxGeometry>
        </mxCell>
        <mxCell id="Y7lzuitGO0QH4Od33xvR-78" value="" style="rounded=0;whiteSpace=wrap;html=1;" vertex="1" parent="1">
          <mxGeometry x="1440.6100000000001" y="4712.81" width="140" height="30" as="geometry" />
        </mxCell>
        <mxCell id="Y7lzuitGO0QH4Od33xvR-79" value="DataBase" style="text;html=1;strokeColor=none;fillColor=none;align=center;verticalAlign=middle;whiteSpace=wrap;rounded=0;" vertex="1" parent="1">
          <mxGeometry x="1480.6100000000001" y="4712.81" width="60" height="30" as="geometry" />
        </mxCell>
        <mxCell id="Y7lzuitGO0QH4Od33xvR-80" value="" style="endArrow=classic;html=1;rounded=0;entryX=0.155;entryY=1.736;entryDx=0;entryDy=0;entryPerimeter=0;" edge="1" parent="1" target="Y7lzuitGO0QH4Od33xvR-89">
          <mxGeometry width="50" height="50" relative="1" as="geometry">
            <mxPoint x="934.5600000000001" y="4811.98" as="sourcePoint" />
            <mxPoint x="1275" y="4810" as="targetPoint" />
          </mxGeometry>
        </mxCell>
        <mxCell id="Y7lzuitGO0QH4Od33xvR-81" value="&lt;span style=&quot;text-wrap: nowrap;&quot;&gt;ricercaDatiTorneo(String Torneo)&lt;/span&gt;" style="text;html=1;strokeColor=none;fillColor=none;align=center;verticalAlign=middle;whiteSpace=wrap;rounded=0;" vertex="1" parent="1">
          <mxGeometry x="922.5600000000001" y="4778" width="370" height="30" as="geometry" />
        </mxCell>
        <mxCell id="Y7lzuitGO0QH4Od33xvR-82" value="partecipatorneo" style="text;html=1;align=center;verticalAlign=middle;resizable=0;points=[];autosize=1;strokeColor=none;fillColor=none;" vertex="1" parent="1">
          <mxGeometry x="718.5600000000001" y="4778" width="110" height="30" as="geometry" />
        </mxCell>
        <mxCell id="Y7lzuitGO0QH4Od33xvR-83" value="&lt;h2&gt;Partecipa torneo&lt;/h2&gt;" style="text;html=1;align=center;verticalAlign=middle;resizable=0;points=[];autosize=1;strokeColor=none;fillColor=none;" vertex="1" parent="1">
          <mxGeometry x="65.55999999999999" y="4640" width="170" height="60" as="geometry" />
        </mxCell>
        <mxCell id="Y7lzuitGO0QH4Od33xvR-84" value="1" style="text;html=1;align=center;verticalAlign=middle;whiteSpace=wrap;rounded=0;" vertex="1" parent="1">
          <mxGeometry x="972.24" y="4716.4" width="10" height="10" as="geometry" />
        </mxCell>
        <mxCell id="Y7lzuitGO0QH4Od33xvR-87" value="return" style="html=1;verticalAlign=bottom;endArrow=open;dashed=1;endSize=8;curved=0;rounded=0;entryX=0.967;entryY=-1.099;entryDx=0;entryDy=0;entryPerimeter=0;" edge="1" parent="1" target="Y7lzuitGO0QH4Od33xvR-59">
          <mxGeometry relative="1" as="geometry">
            <mxPoint x="1282.9299999999998" y="4970" as="sourcePoint" />
            <mxPoint x="420" y="4970" as="targetPoint" />
          </mxGeometry>
        </mxCell>
        <mxCell id="Y7lzuitGO0QH4Od33xvR-88" value="return" style="html=1;verticalAlign=bottom;endArrow=open;dashed=1;endSize=8;curved=0;rounded=0;entryX=0.967;entryY=-1.099;entryDx=0;entryDy=0;entryPerimeter=0;" edge="1" parent="1">
          <mxGeometry relative="1" as="geometry">
            <mxPoint x="1281.84" y="4552" as="sourcePoint" />
            <mxPoint x="405.91" y="4550" as="targetPoint" />
          </mxGeometry>
        </mxCell>
        <mxCell id="Y7lzuitGO0QH4Od33xvR-89" value="" style="rounded=0;whiteSpace=wrap;html=1;rotation=90;" vertex="1" parent="1">
          <mxGeometry x="1198.2300000000002" y="4877.72" width="201.87" height="10" as="geometry" />
        </mxCell>
        <mxCell id="Y7lzuitGO0QH4Od33xvR-90" value="" style="rounded=0;whiteSpace=wrap;html=1;" vertex="1" parent="1">
          <mxGeometry x="1236.67" y="4710.53" width="140" height="30" as="geometry" />
        </mxCell>
        <mxCell id="Y7lzuitGO0QH4Od33xvR-91" value="TorneoDAO" style="text;html=1;strokeColor=none;fillColor=none;align=center;verticalAlign=middle;whiteSpace=wrap;rounded=0;" vertex="1" parent="1">
          <mxGeometry x="1273.67" y="4710.53" width="60" height="30" as="geometry" />
        </mxCell>
        <mxCell id="Y7lzuitGO0QH4Od33xvR-92" value="" style="endArrow=none;dashed=1;html=1;dashPattern=1 3;strokeWidth=2;rounded=0;" edge="1" parent="1">
          <mxGeometry width="50" height="50" relative="1" as="geometry">
            <mxPoint x="1299.23" y="4776.53" as="sourcePoint" />
            <mxPoint x="1299.23" y="4746.53" as="targetPoint" />
          </mxGeometry>
        </mxCell>
        <mxCell id="Y7lzuitGO0QH4Od33xvR-93" value="1" style="text;html=1;align=center;verticalAlign=middle;whiteSpace=wrap;rounded=0;" vertex="1" parent="1">
          <mxGeometry x="1361.48" y="4716.53" width="10" height="10" as="geometry" />
        </mxCell>
        <mxCell id="Y7lzuitGO0QH4Od33xvR-94" value="" style="rounded=0;whiteSpace=wrap;html=1;rotation=90;" vertex="1" parent="1">
          <mxGeometry x="1446.0000000000002" y="4472.81" width="201.87" height="10" as="geometry" />
        </mxCell>
        <mxCell id="Y7lzuitGO0QH4Od33xvR-95" value="" style="endArrow=none;dashed=1;html=1;dashPattern=1 3;strokeWidth=2;rounded=0;" edge="1" parent="1">
          <mxGeometry width="50" height="50" relative="1" as="geometry">
            <mxPoint x="1546.54" y="4346.400000000001" as="sourcePoint" />
            <mxPoint x="1546.54" y="4376.400000000001" as="targetPoint" />
          </mxGeometry>
        </mxCell>
        <mxCell id="Y7lzuitGO0QH4Od33xvR-96" value="" style="rounded=0;whiteSpace=wrap;html=1;" vertex="1" parent="1">
          <mxGeometry x="1476.94" y="4306.400000000001" width="140" height="30" as="geometry" />
        </mxCell>
        <mxCell id="Y7lzuitGO0QH4Od33xvR-97" value="DataBase" style="text;html=1;strokeColor=none;fillColor=none;align=center;verticalAlign=middle;whiteSpace=wrap;rounded=0;" vertex="1" parent="1">
          <mxGeometry x="1516.94" y="4306.400000000001" width="60" height="30" as="geometry" />
        </mxCell>
        <mxCell id="Y7lzuitGO0QH4Od33xvR-98" value="" style="rounded=0;whiteSpace=wrap;html=1;rotation=90;" vertex="1" parent="1">
          <mxGeometry x="1195.0700000000002" y="4472.81" width="201.87" height="10" as="geometry" />
        </mxCell>
        <mxCell id="Y7lzuitGO0QH4Od33xvR-99" value="" style="rounded=0;whiteSpace=wrap;html=1;" vertex="1" parent="1">
          <mxGeometry x="1233.67" y="4306.4" width="140" height="30" as="geometry" />
        </mxCell>
        <mxCell id="Y7lzuitGO0QH4Od33xvR-100" value="TorneoDAO" style="text;html=1;strokeColor=none;fillColor=none;align=center;verticalAlign=middle;whiteSpace=wrap;rounded=0;" vertex="1" parent="1">
          <mxGeometry x="1270.67" y="4306.4" width="60" height="30" as="geometry" />
        </mxCell>
        <mxCell id="Y7lzuitGO0QH4Od33xvR-101" value="" style="endArrow=none;dashed=1;html=1;dashPattern=1 3;strokeWidth=2;rounded=0;" edge="1" parent="1">
          <mxGeometry width="50" height="50" relative="1" as="geometry">
            <mxPoint x="1296.23" y="4372.4" as="sourcePoint" />
            <mxPoint x="1296.23" y="4342.4" as="targetPoint" />
          </mxGeometry>
        </mxCell>
        <mxCell id="Y7lzuitGO0QH4Od33xvR-102" value="1" style="text;html=1;align=center;verticalAlign=middle;whiteSpace=wrap;rounded=0;" vertex="1" parent="1">
          <mxGeometry x="1358.48" y="4312.4" width="10" height="10" as="geometry" />
        </mxCell>
        <mxCell id="Y7lzuitGO0QH4Od33xvR-104" value="selezionaclassifica(String Torneo)" style="text;whiteSpace=wrap;" vertex="1" parent="1">
          <mxGeometry x="1338.69" y="4366.4" width="191.31" height="40" as="geometry" />
        </mxCell>
        <mxCell id="Y7lzuitGO0QH4Od33xvR-105" value="" style="endArrow=classic;html=1;rounded=0;entryX=1;entryY=1;entryDx=0;entryDy=0;" edge="1" parent="1">
          <mxGeometry width="50" height="50" relative="1" as="geometry">
            <mxPoint x="1315" y="4398" as="sourcePoint" />
            <mxPoint x="1536.05" y="4399" as="targetPoint" />
          </mxGeometry>
        </mxCell>
        <mxCell id="Y7lzuitGO0QH4Od33xvR-110" value="" style="endArrow=classic;html=1;rounded=0;entryX=0.943;entryY=0.945;entryDx=0;entryDy=0;entryPerimeter=0;" edge="1" parent="1" target="Y7lzuitGO0QH4Od33xvR-108">
          <mxGeometry width="50" height="50" relative="1" as="geometry">
            <mxPoint x="1312" y="4816.4" as="sourcePoint" />
            <mxPoint x="1497" y="4817" as="targetPoint" />
          </mxGeometry>
        </mxCell>
        <mxCell id="Y7lzuitGO0QH4Od33xvR-108" value="selectAllByTorneo(nometorneo)" style="text;whiteSpace=wrap;" vertex="1" parent="1">
          <mxGeometry x="1313.68" y="4778" width="191.31" height="40" as="geometry" />
        </mxCell>
      </root>
    </mxGraphModel>
  </diagram>
</mxfile>
